<?xml version="1.0" encoding="UTF-8"?>
<svg width="82px" height="24px" viewBox="0 0 82 24" version="1.1" xmlns="http://www.w3.org/2000/svg" xmlns:xlink="http://www.w3.org/1999/xlink">
    <!-- Generator: sketchtool 41.2 (35396) - http://www.bohemiancoding.com/sketch -->
    <title>1C2C57FB-350D-402B-8499-09E7273CEE82</title>
    <desc>Created with sketchtool.</desc>
    <defs></defs>
    <g id="Symbols" stroke="none" stroke-width="1" fill="none" fill-rule="evenodd">
        <g id="Logo/Alfa-bank" fill="#E42712">
            <path d="M56.8029402,11.7921405 C56.3024506,11.7921405 55.895769,12.2004489 55.895769,12.6994924 C55.895769,13.2034161 56.3024506,13.607748 56.8029402,13.607748 C57.3028874,13.607748 57.7090268,13.2034161 57.7090268,12.6994924 C57.7090268,12.2004489 57.3028874,11.7921405 56.8029402,11.7921405 L56.8029402,11.7921405 Z M25.3678963,12.654667 C25.3678963,12.654667 25.8204877,11.1398232 25.8893525,10.9025018 C26.0722688,10.2861532 26.3459204,9.3157205 26.3459204,9.3157205 L26.3907457,9.3157205 C26.3907457,9.3157205 26.6427076,10.3215797 26.8071877,10.8936452 C26.8715338,11.1161453 27.3038816,12.654667 27.3038816,12.654667 L25.3678963,12.654667 Z M28.1226672,15.4056423 L29.7600578,15.4056423 L27.287072,7.84660571 C27.0269765,7.75876248 26.701812,7.70381528 26.3585727,7.70381528 C25.9837026,7.70381528 25.8499495,7.75352081 25.5558735,7.84660571 L22.9334096,15.4056423 L24.5017548,15.4056423 C24.5017548,15.4056423 24.7121447,14.7437454 24.9691675,13.9213448 L27.6811014,13.9213448 C27.9254718,14.7432031 28.1226672,15.4056423 28.1226672,15.4056423 L28.1226672,15.4056423 Z M81.0957509,15.4056423 C81.0957509,15.4056423 80.3205254,13.7507192 80.1303791,13.3765721 C79.916555,12.9518158 79.7195403,12.6588242 79.2815894,12.5547137 L79.2815894,12.5297706 C79.5749424,12.4744619 79.8079258,12.2966065 80.0600684,11.7561718 C80.3031736,11.2273049 80.3751111,11.1143378 80.5169978,10.9894413 C80.6568963,10.8627374 80.847404,10.910997 80.847404,10.910997 L80.9195222,9.92664668 C80.7156392,9.89953458 80.4906087,9.89917308 80.2581675,9.9118254 C79.8740793,9.93568405 79.6734497,10.0446747 79.4854724,10.2368092 C79.3383441,10.3830338 79.2365833,10.6011959 79.1116868,10.8569535 C78.9781145,11.1302436 78.873281,11.3512976 78.7393472,11.6296486 C78.6027022,11.9145065 78.5360064,12.0417526 78.1680047,12.0417526 L77.9292374,12.0417526 L77.9292374,9.9980419 L76.502056,9.9980419 L76.502056,15.4056423 L77.9292374,15.4056423 L77.9292374,13.1960055 L78.1235408,13.192752 C78.529138,13.192752 78.598545,13.2939706 78.8139959,13.7217996 C79.0677652,14.2333148 79.5469265,15.4056423 79.5469265,15.4056423 L81.0957509,15.4056423 Z M75.2624904,15.4056423 L75.2624904,9.9980419 L73.8407314,9.9980419 L73.8407314,12.0426564 L72.2313567,12.0426564 L72.2313567,9.9980419 L70.8123089,9.9980419 L70.8123089,15.4056423 L72.2313567,15.4056423 L72.2313567,13.1974515 L73.8407314,13.1974515 L73.8407314,15.4056423 L75.2624904,15.4056423 Z M36.2029793,9.94887861 L36.1971954,15.1213267 C36.8710217,15.4056423 37.6111822,15.5337922 38.268922,15.5337922 C39.7781627,15.5337922 40.585742,14.7536865 40.585742,13.4678496 C40.585742,12.3043786 39.8708861,11.5846425 38.5348014,11.5846425 C38.1953578,11.5846425 37.9963549,11.6296486 37.6236538,11.7191186 L37.6236538,9.94887861 L36.2029793,9.94887861 Z M39.116085,13.5338224 C39.116085,14.0673887 38.9281077,14.4328599 38.2456056,14.4328599 C38.0156949,14.4328599 37.921164,14.4328599 37.6229308,14.3491738 L37.6229308,12.7898661 C37.9932822,12.7177479 38.0259975,12.7056378 38.2456056,12.7056378 C38.8979229,12.7056378 39.116085,13.0228495 39.116085,13.5338224 L39.116085,13.5338224 Z M70.0678104,14.8867166 C69.6913136,14.3162778 69.5938907,13.9797262 69.5938907,13.262159 L69.5938907,11.8055158 C69.5938907,11.0185417 69.5036978,10.7298881 69.2956575,10.4414153 C69.0066425,10.0367218 68.5262159,9.86175837 67.6387462,9.86175837 C67.0122758,9.86175837 66.3986384,9.92953864 65.8113901,10.0790167 L66.0215993,11.1222907 C66.4197858,11.0666205 66.8385775,11.0185417 67.1389797,11.0185417 C68.0783239,11.0185417 68.1867723,11.1557289 68.1867723,11.860463 L68.1867723,12.1247157 C67.9781898,12.0685033 67.7435797,12.0280158 67.4693859,12.0280158 C66.0485307,12.0280158 65.3004172,12.7210013 65.3004172,13.8651323 C65.3004172,14.9403985 66.0998629,15.5274661 67.0786101,15.5274661 C67.442816,15.5274661 67.8214818,15.4596858 68.1217032,15.3384043 C68.3033544,15.258514 68.3821602,15.2135079 68.6162281,15.0587881 C68.7581148,15.2670091 69.0426112,15.477399 69.157928,15.515356 L70.0678104,14.8867166 Z M68.2610595,14.2633188 C67.9490895,14.3714058 67.7435797,14.3963489 67.495775,14.3963489 C66.9869711,14.3963489 66.7004865,14.1955386 66.7004865,13.6740823 C66.7004865,13.1314787 67.0646925,12.9476586 67.7690651,12.9476586 C67.9400521,12.9476586 68.1090509,12.9735054 68.1867723,13.0011598 L68.1867723,13.3903089 C68.1867723,13.8100044 68.2095465,14.0845597 68.2610595,14.2633188 L68.2610595,14.2633188 Z M54.3877935,14.8867166 C54.0129234,14.3162778 53.9153198,13.9797262 53.9153198,13.262159 L53.9153198,11.8055158 C53.9153198,11.0185417 53.8244039,10.7298881 53.6156407,10.4414153 C53.3280716,10.0367218 52.8467413,9.86175837 51.9598138,9.86175837 C51.3344279,9.86175837 50.7191637,9.92953864 50.1313732,10.0790167 L50.3421247,11.1222907 C50.7419379,11.0666205 51.1581992,11.0185417 51.4593243,11.0185417 C52.400476,11.0185417 52.5089244,11.1557289 52.5089244,11.860463 L52.5089244,12.1247157 C52.2997997,12.0685033 52.0641051,12.0280158 51.7904535,12.0280158 C50.3685138,12.0280158 49.6204004,12.7210013 49.6204004,13.8651323 C49.6204004,14.9403985 50.4194846,15.5274661 51.3994969,15.5274661 C51.7633414,15.5274661 52.1430917,15.4596858 52.4433131,15.3384043 C52.6238797,15.258514 52.7026856,15.2135079 52.937838,15.0587881 C53.0797247,15.2670091 53.3625943,15.477399 53.4784534,15.515356 L54.3877935,14.8867166 Z M52.5819463,14.2633188 C52.2696149,14.3714058 52.0641051,14.3963489 51.8173849,14.3963489 C51.3089425,14.3963489 51.0199274,14.1955386 51.0199274,13.6740823 C51.0199274,13.1314787 51.3846756,12.9476586 52.0890482,12.9476586 C52.2584085,12.9476586 52.4290341,12.9735054 52.5089244,13.0011598 L52.5089244,13.3903089 C52.5089244,13.8100044 52.5295296,14.0845597 52.5819463,14.2633188 L52.5819463,14.2633188 Z M35.0763808,15.4056423 L35.0763808,10.1950566 C34.2960944,9.96261541 33.6958323,9.86175837 32.9128346,9.86175837 C32.1305599,9.86175837 31.5451191,9.96261541 30.7644711,10.1950566 L30.7644711,12.862888 C30.7644711,13.5884081 30.7519995,13.8060279 30.6730129,14.0404573 C30.5943878,14.2459671 30.4890121,14.4926873 30.2027082,14.6833758 L30.5900499,15.515356 C31.7311081,15.1930834 32.1609254,14.6965703 32.1609254,13.1184649 L32.1609254,11.1557289 C32.5379645,11.100601 32.6124324,11.0879487 32.9128346,11.0879487 C33.215225,11.0879487 33.2783058,11.100601 33.6542604,11.1557289 L33.6542604,15.4056423 L35.0763808,15.4056423 Z M45.8304891,17.1769668 L45.8304891,15.2341131 C46.0105135,15.3405733 46.3694778,15.4978235 46.9748008,15.4978235 C48.1783977,15.4978235 49.0653251,14.4975674 49.0653251,12.6696691 C49.0653251,10.7007878 48.1841816,9.85796268 46.7360335,9.85796268 C46.3680318,9.85796268 46.1285415,9.89573888 45.8304891,10.0378063 L45.8304891,7.71646759 L44.4150563,7.71646759 L44.4150563,10.0378063 C44.1173653,9.89573888 43.876429,9.85796268 43.5089696,9.85796268 C42.0610022,9.85796268 41.1791357,10.735672 41.1791357,12.7032881 C41.1791357,14.5319094 41.9762317,15.4978235 43.2680333,15.4978235 C43.8758868,15.4978235 44.2350319,15.3405733 44.4150563,15.2341131 L44.4150563,17.1769668 L45.8304891,17.1769668 L45.8304891,17.1769668 Z M42.6386709,12.7032881 C42.6386709,11.6179 42.9656429,11.0440271 43.6175988,11.0440271 C43.892877,11.0440271 44.0756127,11.0424003 44.4150563,11.2047115 L44.4150563,14.1904776 C44.106882,14.2915154 43.9611996,14.3052522 43.6864635,14.3052522 C42.943411,14.3052522 42.6386709,13.6988447 42.6386709,12.7032881 L42.6386709,12.7032881 Z M47.6065129,12.6696691 C47.6065129,13.6639605 47.2104954,14.3052522 46.5585396,14.3052522 C46.284888,14.3052522 46.1397479,14.2915154 45.8304891,14.1904776 L45.8304891,11.2047115 C46.1699327,11.0424003 46.3526683,11.0440271 46.6268621,11.0440271 C47.2797216,11.0440271 47.6065129,11.583558 47.6065129,12.6696691 L47.6065129,12.6696691 Z M64.7581751,13.058276 C64.7581751,11.7185763 63.9733699,10.7954994 62.3244114,10.7954994 C61.9193565,10.7954994 61.6364869,10.8341793 61.1996204,10.9373861 L61.1965477,9.00899218 C61.4680303,8.97031224 61.9336356,8.93633173 62.4462352,8.93633173 C62.9311804,8.93633173 63.5455408,8.9629016 64.0845295,9.02869365 L64.122125,7.91113253 C63.5093913,7.77376452 62.6210179,7.68989773 61.9314666,7.68989773 C61.2520372,7.68989773 60.1957494,7.85980027 59.6925487,7.99590306 L59.6920064,15.1240379 C60.4762694,15.410884 61.2415538,15.5422874 62.0272627,15.5422874 C63.825157,15.5422874 64.7581751,14.5892064 64.7581751,13.058276 L64.7581751,13.058276 Z M63.2462231,13.1661822 C63.2462231,13.8886295 62.8464099,14.3639951 62.1098643,14.3639951 C61.8186802,14.3639951 61.5799129,14.3648989 61.1996204,14.2611499 L61.1996204,12.0742872 C61.3675348,12.0466328 61.714389,11.9927701 62.1098643,12.0070491 C62.8587007,12.0354265 63.2462231,12.3851727 63.2462231,13.1661822 L63.2462231,13.1661822 Z M7.69152445,3.7956952 L5.56485066,10.1805968 L9.85199801,10.1805968 L7.71809432,3.7956952 L7.69152445,3.7956952 Z M0.238405808,20.7967947 C0.106460213,20.7967947 -1.42108547e-14,20.9059662 -1.42108547e-14,21.0409845 L-1.42108547e-14,23.755991 C-1.42108547e-14,23.8913708 0.106460213,24 0.238405808,24 L15.1701285,24 C15.3009896,24 15.4065461,23.8913708 15.4065461,23.755991 L15.4065461,21.0409845 C15.4065461,20.9059662 15.3009896,20.7967947 15.1701285,20.7967947 L0.238405808,20.7967947 L0.238405808,20.7967947 Z M7.70417677,0 C9.33831393,0 9.85199801,1.17033935 10.2812731,2.34212469 C10.4634664,2.83755328 14.7079574,14.460695 14.8348421,14.8093567 C14.8704493,14.9055143 14.8469521,15.0661987 14.6971126,15.1234957 C14.5467307,15.1806118 12.3408896,16.0384389 12.2192466,16.084168 C12.0972421,16.1300779 11.9598741,16.0622976 11.9150487,15.9410161 C11.8698619,15.8204576 10.9558223,13.2869214 10.8524348,13.003148 L4.56369086,13.003148 C4.46030335,13.2869214 3.53668419,15.8249763 3.4940278,15.9410161 C3.45173292,16.0570559 3.31960657,16.1353195 3.19073368,16.084168 C3.06131855,16.032655 0.84571704,15.1742857 0.714855929,15.1234957 C0.587971261,15.0752361 0.529770601,14.9311804 0.574776702,14.8093567 C0.730942447,14.3730325 4.9105451,2.93696435 5.12473076,2.34212469 C5.53810004,1.18913708 6.0707626,0 7.70417677,0 L7.70417677,0 Z" id="Logo_alfa"></path>
        </g>
    </g>
</svg>