<?xml version="1.0" encoding="UTF-8" standalone="no"?>
<svg
   xmlns:dc="http://purl.org/dc/elements/1.1/"
   xmlns:cc="http://creativecommons.org/ns#"
   xmlns:rdf="http://www.w3.org/1999/02/22-rdf-syntax-ns#"
   xmlns:svg="http://www.w3.org/2000/svg"
   xmlns="http://www.w3.org/2000/svg"
   xmlns:sodipodi="http://sodipodi.sourceforge.net/DTD/sodipodi-0.dtd"
   xmlns:inkscape="http://www.inkscape.org/namespaces/inkscape"
   width="92"
   height="23"
   viewBox="0 0 92 23"
   version="1.1"
   id="svg2"
   inkscape:version="0.91 r13725"
   sodipodi:docname="minbank.svg">
  <metadata
     id="metadata45">
    <rdf:RDF>
      <cc:Work
         rdf:about="">
        <dc:format>image/svg+xml</dc:format>
        <dc:type
           rdf:resource="http://purl.org/dc/dcmitype/StillImage" />
        <dc:title>AA3E52BB-6B2B-4D69-8812-02B344864B57</dc:title>
      </cc:Work>
    </rdf:RDF>
  </metadata>
  <sodipodi:namedview
     pagecolor="#ffffff"
     bordercolor="#666666"
     borderopacity="1"
     objecttolerance="10"
     gridtolerance="10"
     guidetolerance="10"
     inkscape:pageopacity="0"
     inkscape:pageshadow="2"
     inkscape:window-width="1409"
     inkscape:window-height="671"
     id="namedview43"
     showgrid="false"
     inkscape:zoom="6.877828"
     inkscape:cx="35.510959"
     inkscape:cy="17.763632"
     inkscape:window-x="373"
     inkscape:window-y="68"
     inkscape:window-maximized="0"
     inkscape:current-layer="svg2" />
  <!-- Generator: sketchtool 42 (36644) - http://www.bohemiancoding.com/sketch -->
  <title
     id="title4">AA3E52BB-6B2B-4D69-8812-02B344864B57</title>
  <desc
     id="desc6">Created with sketchtool.</desc>
  <defs
     id="defs8" />
  <g
     id="Symbols"
     transform="matrix(0.41739162,0,0,0.41739162,-0.17393843,-0.12342311)"
     style="fill:none;fill-rule:evenodd;stroke:none;stroke-width:1">
    <g
       id="Logo/Minbank"
       style="fill:#7a1a1d">
      <g
         id="Minbank">
        <polygon
           id="Fill-1"
           points="52.2056,3.6942 25.3096,3.6942 14.9626,34.7302 14.9626,3.6942 8.7566,3.6942 8.7566,47.1422 17.4466,47.1422 29.8606,9.8992 45.9976,9.9012 45.9976,49.2122 27.7336,49.2122 25.6636,55.4192 52.2056,55.4192 " />
        <polygon
           id="Fill-2"
           points="43.9294,47.1418 28.4204,47.1418 30.4884,40.9348 37.7224,40.9368 37.7224,18.1768 35.8644,18.1768 23.4504,55.4188 0.4804,55.4188 0.4804,3.6948 6.6874,3.6948 6.6874,49.2118 18.8994,49.2118 31.3144,11.9698 43.9294,11.9698 " />
        <polygon
           id="Fill-3"
           points="65.7198,3.6955 69.0158,13.2095 72.3098,3.6955 75.4368,3.6955 75.4368,16.1345 73.1338,16.1345 73.1338,6.8235 69.9908,16.1345 68.0398,16.1345 64.8968,6.8235 64.8968,16.1345 62.5938,16.1345 62.5938,3.6955 " />
        <path
           d="m 90.1924,9.9831 c 0,3.597 -2.857,6.454 -6.555,6.454 -3.697,0 -6.554,-2.857 -6.554,-6.454 0,-3.599 2.84,-6.505 6.554,-6.505 3.717,0 6.555,2.906 6.555,6.505 m -2.302,-0.052 c 0,-2.318 -1.816,-4.218 -4.253,-4.218 -2.435,0 -4.252,1.9 -4.252,4.218 0,2.355 1.833,4.269 4.236,4.269 2.471,0 4.269,-1.949 4.269,-4.269"
           id="Fill-4"
           inkscape:connector-curvature="0" />
        <path
           d="m 100.8491,7.259 c -0.623,-0.791 -1.646,-1.544 -3.126,-1.544 -2.489,0 -4.22,2.014 -4.22,4.2 0,2.338 1.849,4.285 4.236,4.285 1.109,0 2.218,-0.435 2.993,-1.444 l 2.672,0 c -1.025,2.184 -3.026,3.681 -5.731,3.681 -4.355,0 -6.472,-3.664 -6.472,-6.522 0,-2.773 2.101,-6.437 6.504,-6.437 2.573,0 4.723,1.395 5.765,3.781 l -2.621,0 z"
           id="Fill-6"
           inkscape:connector-curvature="0" />
        <polygon
           id="Fill-8"
           points="109.1852,9.8155 113.8742,16.1345 111.1172,16.1345 107.2532,10.6885 107.2532,16.1345 104.9512,16.1345 104.9512,3.6955 107.2532,3.6955 107.2532,9.0915 111.1172,3.6955 113.8742,3.6955 " />
        <path
           d="m 126.7666,9.9831 c 0,3.597 -2.857,6.454 -6.557,6.454 -3.696,0 -6.553,-2.857 -6.553,-6.454 0,-3.599 2.841,-6.505 6.553,-6.505 3.716,0 6.557,2.906 6.557,6.505 m -2.302,-0.052 c 0,-2.318 -1.814,-4.218 -4.255,-4.218 -2.436,0 -4.25,1.9 -4.25,4.218 0,2.355 1.833,4.269 4.236,4.269 2.469,0 4.269,-1.949 4.269,-4.269"
           id="Fill-10"
           inkscape:connector-curvature="0" />
        <path
           d="m 128.415,3.6955 2.991,0 c 0.774,0 4.321,0.019 4.321,3.278 0,1.548 -1.028,2.187 -1.364,2.371 1.346,0.454 2.119,1.613 2.119,3.007 0,1.799 -0.974,3.783 -4.959,3.783 l -3.108,0 0,-12.439 z m 3.378,4.791 c 1.511,0 1.631,-0.958 1.631,-1.278 0,-1.21 -1.127,-1.276 -1.631,-1.276 l -1.074,0 0,2.554 1.074,0 z m 0.42,5.413 c 0.269,0 1.966,-0.017 1.966,-1.564 0,-0.47 -0.168,-1.612 -1.966,-1.612 l -1.494,0 0,3.176 1.494,0 z"
           id="Fill-12"
           inkscape:connector-curvature="0" />
        <path
           d="m 147.1719,7.259 c -0.622,-0.791 -1.647,-1.544 -3.126,-1.544 -2.488,0 -4.22,2.014 -4.22,4.2 0,2.338 1.849,4.285 4.239,4.285 1.107,0 2.216,-0.435 2.991,-1.444 l 2.673,0 c -1.028,2.184 -3.03,3.681 -5.735,3.681 -4.352,0 -6.469,-3.664 -6.469,-6.522 0,-2.773 2.1,-6.437 6.502,-6.437 2.575,0 4.725,1.395 5.766,3.781 l -2.621,0 z"
           id="Fill-14"
           inkscape:connector-curvature="0" />
        <polygon
           id="Fill-16"
           points="155.5084,9.8155 160.1984,16.1345 157.4414,16.1345 153.5764,10.6885 153.5764,16.1345 151.2734,16.1345 151.2734,3.6955 153.5764,3.6955 153.5764,9.0915 157.4414,3.6955 160.1984,3.6955 " />
        <polygon
           id="Fill-18"
           points="163.9971,16.1345 161.6931,16.1345 161.6931,3.6955 163.9971,3.6955 163.9971,12.4355 169.5431,3.6955 171.8461,3.6955 171.8461,16.1345 169.5431,16.1345 169.5431,7.3945 " />
        <path
           d="m 176.4346,3.6955 0,8.74 5.547,-8.74 2.302,0 0,12.439 -2.302,0 0,-8.74 -5.547,8.74 -2.302,0 0,-12.439 2.302,0 z m 1.681,-3.023 c 0.084,0.586 0.588,0.838 1.092,0.838 0.503,0 1.009,-0.252 1.093,-0.838 l 1.933,0 c -0.219,1.343 -1.345,2.352 -3.026,2.352 -1.682,0 -2.807,-1.009 -3.025,-2.352 l 1.933,0 z"
           id="Fill-20"
           inkscape:connector-curvature="0" />
        <polygon
           id="Fill-22"
           points="64.897,35.7449 62.595,35.7449 62.595,23.3069 64.897,23.3069 64.897,32.0469 70.445,23.3069 72.746,23.3069 72.746,35.7449 70.445,35.7449 70.445,27.0039 " />
        <polygon
           id="Fill-24"
           points="81.8722,28.2989 81.8722,23.3069 84.1752,23.3069 84.1752,35.7449 81.8722,35.7449 81.8722,30.5329 77.3352,30.5329 77.3352,35.7449 75.0322,35.7449 75.0322,23.3069 77.3352,23.3069 77.3352,28.2989 " />
        <path
           d="m 97.8408,33.5095 1.158,0 0,3.769 -2.302,0 0,-1.534 -8.976,0 0,1.534 -2.302,0 0,-3.769 1.193,0 4.606,-10.203 2.017,0 4.606,10.203 z m -2.54,0 -3.074,-7.009 -3.077,7.009 6.151,0 z"
           id="Fill-26"
           inkscape:connector-curvature="0" />
        <polygon
           id="Fill-28"
           points="97.2081,23.3073 99.9991,23.3073 103.2751,29.9283 106.1501,23.3073 108.6701,23.3073 103.0391,35.7453 100.5181,35.7453 101.9811,32.5863 " />
        <path
           d="m 117.8984,26.8703 c -0.621,-0.789 -1.646,-1.547 -3.126,-1.547 -2.487,0 -4.219,2.017 -4.219,4.202 0,2.336 1.849,4.288 4.234,4.288 1.111,0 2.22,-0.438 2.994,-1.446 l 2.673,0 c -1.026,2.185 -3.028,3.678 -5.734,3.678 -4.351,0 -6.47,-3.662 -6.47,-6.52 0,-2.773 2.101,-6.438 6.503,-6.438 2.575,0 4.725,1.396 5.766,3.783 l -2.621,0 z"
           id="Fill-30"
           inkscape:connector-curvature="0" />
        <polygon
           id="Fill-32"
           points="127.8472,23.3082 127.8472,25.5422 125.5462,25.5422 125.5462,35.7452 123.2422,35.7452 123.2422,25.5422 120.9402,25.5422 120.9402,23.3082 " />
        <path
           d="m 129.0586,23.3069 3.479,0 c 3.983,0 4.455,2.706 4.455,3.883 0,1.563 -0.839,3.849 -4.455,3.849 l -1.176,0 0,4.706 -2.303,0 0,-12.438 z m 2.303,5.497 1.363,0 c 0.603,0 1.964,-0.101 1.964,-1.631 0,-1.531 -1.361,-1.632 -1.964,-1.632 l -1.363,0 0,3.263 z"
           id="Fill-34"
           inkscape:connector-curvature="0" />
        <polygon
           id="Fill-36"
           points="140.7734,35.7449 138.4694,35.7449 138.4694,23.3069 140.7734,23.3069 140.7734,32.0469 146.3204,23.3069 148.6234,23.3069 148.6234,35.7449 146.3204,35.7449 146.3204,27.0039 " />
        <path
           d="m 155.0586,23.3069 1.85,0 5.176,12.438 -2.536,0 -1.278,-3.209 -4.571,0 -1.28,3.209 -2.537,0 5.176,-12.438 z m 2.339,6.99 -1.411,-3.628 -1.413,3.628 2.824,0 z"
           id="Fill-38"
           inkscape:connector-curvature="0" />
        <polygon
           id="Fill-40"
           points="169.2615,23.3073 174.1875,35.7453 171.6485,35.7453 168.2525,26.5013 164.8595,35.7453 162.3215,35.7453 167.2465,23.3073 " />
        <path
           d="m 177.75,23.3069 0,4.792 1.852,0 c 3.074,0 4.117,1.966 4.117,3.829 0,2.27 -1.698,3.817 -4.117,3.817 l -4.154,0 0,-12.438 2.302,0 z m 0,10.203 1.865,0 c 1.061,0 1.8,-0.59 1.8,-1.582 0,-1.007 -0.739,-1.596 -1.8,-1.596 l -1.865,0 0,3.178 z"
           id="Fill-42"
           inkscape:connector-curvature="0" />
        <polygon
           id="Fill-44"
           points="192.0373,28.2989 192.0373,23.3069 194.3403,23.3069 194.3403,35.7449 192.0373,35.7449 192.0373,30.5329 187.5003,30.5329 187.5003,35.7449 185.1963,35.7449 185.1963,23.3069 187.5003,23.3069 187.5003,28.2989 " />
        <path
           d="m 198.9287,23.3069 0,4.792 1.848,0 c 3.077,0 4.119,1.966 4.119,3.829 0,2.27 -1.698,3.817 -4.119,3.817 l -4.154,0 0,-12.438 2.306,0 z m 0,10.203 1.865,0 c 1.059,0 1.799,-0.59 1.799,-1.582 0,-1.007 -0.74,-1.596 -1.799,-1.596 l -1.865,0 0,3.178 z m 7.226,2.235 2.304,0 0,-12.438 -2.304,0 0,12.438 z"
           id="Fill-46"
           inkscape:connector-curvature="0" />
        <path
           d="m 213.0469,23.3069 0,8.74 5.546,-8.74 2.304,0 0,12.438 -2.304,0 0,-8.741 -5.546,8.741 -2.303,0 0,-12.438 2.303,0 z m 1.681,-3.024 c 0.086,0.587 0.587,0.838 1.092,0.838 0.505,0 1.009,-0.251 1.093,-0.838 l 1.933,0 c -0.218,1.344 -1.345,2.352 -3.026,2.352 -1.679,0 -2.805,-1.008 -3.026,-2.352 l 1.934,0 z"
           id="Fill-48"
           inkscape:connector-curvature="0" />
        <path
           d="m 69.8555,42.9778 0,2.234 -4.958,0 0,2.557 1.984,0 c 3.966,0 4.117,3.192 4.117,3.831 0,2.27 -1.681,3.814 -4.117,3.814 l -4.288,0 0,-12.436 7.262,0 z m -4.958,10.202 2,0 c 1.261,0 1.797,-0.789 1.797,-1.58 0,-0.588 -0.351,-1.596 -1.797,-1.596 l -2,0 0,3.176 z"
           id="Fill-50"
           inkscape:connector-curvature="0" />
        <path
           d="m 76.8306,42.9778 1.849,0 5.176,12.436 -2.536,0 -1.279,-3.21 -4.572,0 -1.277,3.21 -2.538,0 5.177,-12.436 z m 2.335,6.993 -1.411,-3.631 -1.413,3.631 2.824,0 z"
           id="Fill-52"
           inkscape:connector-curvature="0" />
        <polygon
           id="Fill-54"
           points="91.9567,47.9698 91.9567,42.9778 94.2607,42.9778 94.2607,55.4138 91.9567,55.4138 91.9567,50.2048 87.4177,50.2048 87.4177,55.4138 85.1167,55.4138 85.1167,42.9778 87.4177,42.9778 87.4177,47.9698 " />
        <polygon
           id="Fill-56"
           points="100.7814,49.0958 105.4704,55.4138 102.7144,55.4138 98.8484,49.9708 98.8484,55.4138 96.5454,55.4138 96.5454,42.9778 98.8484,42.9778 98.8484,48.3728 102.7144,42.9778 105.4704,42.9778 " />
      </g>
    </g>
  </g>
</svg>
