<?xml version="1.0" encoding="UTF-8"?>
<svg width="68px" height="22px" viewBox="0 0 68 22" version="1.1" xmlns="http://www.w3.org/2000/svg" xmlns:xlink="http://www.w3.org/1999/xlink">
    <!-- Generator: sketchtool 41.2 (35396) - http://www.bohemiancoding.com/sketch -->
    <title>40EA3F0F-25ED-45A5-8242-85A3FFBA5F3D</title>
    <desc>Created with sketchtool.</desc>
    <defs></defs>
    <g id="Symbols" stroke="none" stroke-width="1" fill="none" fill-rule="evenodd">
        <g id="Logos/Security/Dark" transform="translate(-179.000000, 0.000000)">
            <g id="secure">
                <g id="Logo/PCI/Dark" transform="translate(179.000000, 0.000000)">
                    <g id="Page-1" transform="translate(0.263129, 0.400444)">
                        <path d="M32.8517942,9.3907115 C33.0305062,9.50682751 33.2876202,9.59684806 33.5634508,9.59684806 C33.9750403,9.59684806 34.2125754,9.38116652 34.2125754,9.05882637 C34.2125754,8.76836121 34.0480086,8.59567586 33.6293465,8.43656366 C33.1221909,8.24951705 32.809445,7.97892997 32.809445,7.53881001 C32.809445,7.04842566 33.2107707,6.68317689 33.812026,6.68317689 C34.1264107,6.68317689 34.3599782,6.75725995 34.4947885,6.83685984 L34.3834385,7.16953308 C34.2878724,7.10832261 34.0808702,7.0206664 33.8009859,7.0206664 C33.3762,7.0206664 33.214652,7.27689223 33.214652,7.49178566 C33.214652,7.78636654 33.4036278,7.93190561 33.8324675,8.10065037 C34.3568732,8.31151565 34.6186448,8.56222465 34.6186448,9.02625084 C34.6186448,9.51173135 34.269846,9.93740248 33.5368855,9.93740248 C33.2374222,9.93740248 32.9105311,9.84361647 32.7451018,9.73292972 L32.8517942,9.3907115" id="Fill-1" fill="#C1CCD7"></path>
                        <path d="M36.5986991,8.53041972 C36.6034429,8.27323064 36.4935592,7.86104508 36.0436743,7.86104508 C35.6282035,7.86104508 35.451044,8.24468326 35.4213737,8.53041972 L36.5986991,8.53041972 Z M35.4158537,8.82482547 C35.4253413,9.381149 35.76931,9.609528 36.174517,9.609528 C36.4654414,9.609528 36.6448434,9.55943874 36.794575,9.49726501 L36.8659045,9.78773017 C36.7240217,9.85305637 36.4755328,9.93344438 36.1205239,9.93344438 C35.4394002,9.93344438 35.0238431,9.4702063 35.0238431,8.79216237 C35.0238431,8.10544913 35.4253413,7.56663933 36.0750696,7.56663933 C36.8016476,7.56663933 36.9920897,8.21674887 36.9920897,8.63305016 C36.9920897,8.71746632 36.9866559,8.78261738 36.978117,8.82885362 L35.4158537,8.82482547 L35.4158537,8.82482547 Z" id="Fill-3" fill="#C1CCD7"></path>
                        <path d="M39.08195,9.80691646 C38.9745676,9.85700572 38.7393613,9.93739372 38.4414505,9.93739372 C37.7682619,9.93739372 37.3307971,9.47415565 37.3307971,8.77789744 C37.3307971,8.08067597 37.8010373,7.57146436 38.529254,7.57146436 C38.7682553,7.57146436 38.9800014,7.63188672 39.0890226,7.69318476 L38.9980279,8.00676804 C38.9015993,7.95422686 38.7511777,7.89862078 38.529254,7.89862078 C38.0175271,7.89862078 37.7399716,8.28611198 37.7399716,8.75880747 C37.7399716,9.28255548 38.073159,9.60629672 38.5158851,9.60629672 C38.7441913,9.60629672 38.8968555,9.54902683 39.0120868,9.49727377 L39.08195,9.80691646" id="Fill-5" fill="#C1CCD7"></path>
                        <path d="M41.4201614,9.26816795 C41.4201614,9.50215134 41.4264577,9.70820034 41.4390503,9.88578953 L41.0784351,9.88578953 L41.0580799,9.51642503 L41.0479023,9.51642503 C40.9468162,9.69865536 40.7061761,9.93745502 40.3102842,9.93745502 C39.9607091,9.93745502 39.5413571,9.73613473 39.5413571,8.94512726 L39.5413571,7.62231546 L39.9464777,7.62231546 L39.9464777,8.87104419 C39.9464777,9.30161917 40.080598,9.59593735 40.4443182,9.59593735 C40.7163537,9.59593735 40.9053295,9.40424961 40.9796778,9.21632732 C41.0023618,9.16142178 41.0165069,9.08672574 41.0165069,9.00633773 L41.0165069,7.62231546 L41.4201614,7.62231546 L41.4201614,9.26816795" id="Fill-7" fill="#C1CCD7"></path>
                        <path d="M42.0990512,8.32825877 C42.0990512,8.06152471 42.0950836,7.83314571 42.0801622,7.62228044 L42.4345673,7.62228044 L42.4532838,8.06800479 L42.4676015,8.06800479 C42.5686013,7.76405406 42.8170903,7.57140306 43.0874007,7.57140306 C43.1297499,7.57140306 43.1627841,7.5760442 43.199527,7.5849762 L43.199527,7.96931494 C43.1533827,7.96449866 43.1118098,7.95889427 43.0569542,7.95889427 C42.7699973,7.95889427 42.5686013,8.17939209 42.5136595,8.48343039 C42.5035681,8.54394031 42.4989105,8.60996707 42.4989105,8.68002197 L42.4989105,9.8857545 L42.0950836,9.8857545 L42.0990512,8.32825877" id="Fill-9" fill="#C1CCD7"></path>
                        <path d="M44.021188,9.88579829 L43.617361,9.88579829 L43.617361,7.62319991 L44.021188,7.62319991 L44.021188,9.88579829 Z M43.8101319,7.20698619 C43.658244,7.20698619 43.5562954,7.08517822 43.5562954,6.93955158 C43.5562954,6.79471306 43.6628153,6.67842191 43.8196195,6.67842191 C43.9755612,6.67842191 44.0775098,6.79471306 44.0775098,6.93955158 C44.0775098,7.08517822 43.9755612,7.20698619 43.8165145,7.20698619 L43.8101319,7.20698619 L43.8101319,7.20698619 Z" id="Fill-11" fill="#C1CCD7"></path>
                        <path d="M45.1827725,7.08125514 L45.1827725,7.62391797 L45.7628964,7.62391797 L45.7628964,7.93662556 L45.1827725,7.93662556 L45.1827725,9.15759503 C45.1827725,9.43763953 45.2627272,9.59683931 45.4875834,9.59683931 C45.5966908,9.59683931 45.6625003,9.58729432 45.7228759,9.56811679 L45.7400399,9.88170007 C45.6625003,9.90945933 45.5377814,9.93818184 45.3810635,9.93818184 C45.1921739,9.93818184 45.0408035,9.87224266 44.9452374,9.76479595 C44.8331975,9.63825927 44.786967,9.43763953 44.786967,9.17020492 L44.786967,7.93662556 L44.4419632,7.93662556 L44.4419632,7.62391797 L44.786967,7.62391797 L44.786967,7.2070037 L45.1827725,7.08125514" id="Fill-13" fill="#C1CCD7"></path>
                        <path d="M46.4078896,7.62231546 L46.8915849,8.96001392 C46.947993,9.10966872 47.0013823,9.28795846 47.0389877,9.423252 L47.0484753,9.423252 C47.0890995,9.28795846 47.1361063,9.114485 47.1903581,8.9514322 L47.6330842,7.62231546 L48.0619239,7.62231546 L47.4527335,9.23550485 C47.1628441,10.0121511 46.9644669,10.4101505 46.6886364,10.6569189 C46.4871542,10.8303924 46.2926583,10.9004473 46.1915722,10.9193621 L46.0904861,10.5733784 C46.1915722,10.5462322 46.3256924,10.4794173 46.4447187,10.371883 C46.5552924,10.2827381 46.6886364,10.1243265 46.785755,9.91354879 C46.8038677,9.87142827 46.8171503,9.84358145 46.8171503,9.81564705 C46.8171503,9.79165325 46.8093015,9.75846473 46.785755,9.71301661 L45.9657672,7.62231546 L46.4078896,7.62231546" id="Fill-14" fill="#C1CCD7"></path>
                        <path d="M32.8517942,14.065458 C33.0305062,14.1833253 33.2876202,14.2715945 33.5634508,14.2715945 C33.9750403,14.2715945 34.2125754,14.055913 34.2125754,13.7327847 C34.2125754,13.4438958 34.0480086,13.2712105 33.6293465,13.1120982 C33.1221909,12.9257522 32.809445,12.6536764 32.809445,12.2135565 C32.809445,11.7232597 33.2107707,11.358799 33.812026,11.358799 C34.1264107,11.358799 34.3599782,11.4335827 34.4947885,11.5131825 L34.3834385,11.8451552 C34.2878724,11.7845577 34.0808702,11.6962886 33.8009859,11.6962886 C33.3762,11.6962886 33.214652,11.9525144 33.214652,12.1673202 C33.214652,12.4619011 33.4036278,12.6067397 33.8324675,12.7746963 C34.3568732,12.9863497 34.6186448,13.2385474 34.6186448,13.7017854 C34.6186448,14.1879665 34.269846,14.6130246 33.5368855,14.6130246 C33.2374222,14.6130246 32.9105311,14.5198516 32.7451018,14.4068005 L32.8517942,14.065458" id="Fill-15" fill="#C1CCD7"></path>
                        <path d="M35.6282121,11.7566846 L35.6282121,12.2986469 L36.208336,12.2986469 L36.208336,12.6122302 L35.6282121,12.6122302 L35.6282121,13.832324 C35.6282121,14.1132442 35.7074767,14.2723564 35.9324192,14.2723564 C36.0436829,14.2723564 36.1087161,14.2627238 36.1676255,14.2437214 L36.1864282,14.5573047 C36.1087161,14.5867278 35.9833935,14.6136989 35.826503,14.6136989 C35.6376135,14.6136989 35.4863293,14.5485479 35.3890382,14.4411011 C35.2794995,14.3154401 35.231544,14.1132442 35.231544,13.8473858 L35.231544,12.6122302 L34.8866265,12.6122302 L34.8866265,12.2986469 L35.231544,12.2986469 L35.231544,11.8832213 L35.6282121,11.7566846" id="Fill-16" fill="#C1CCD7"></path>
                        <path d="M37.8394017,13.4081766 C37.3966756,13.3977559 36.8949538,13.4780563 36.8949538,13.9166 C36.8949538,14.1887634 37.0696983,14.3089951 37.2719567,14.3089951 C37.5667624,14.3089951 37.7564283,14.1228242 37.820599,13.9309613 C37.8348304,13.8888408 37.8394017,13.8426045 37.8394017,13.7996959 L37.8394017,13.4081766 Z M38.2346035,14.0201062 C38.2346035,14.2166978 38.2447811,14.4075974 38.2667751,14.5620684 L37.9039174,14.5620684 L37.8661395,14.2786088 L37.8528568,14.2786088 C37.733658,14.4538336 37.4906891,14.6130334 37.1707844,14.6130334 C36.7201232,14.6130334 36.4897469,14.2906057 36.4897469,13.9635368 C36.4897469,13.4168458 36.9679221,13.1175363 37.8293966,13.1215644 L37.8293966,13.0746276 C37.8293966,12.8891573 37.778336,12.546939 37.322931,12.5518429 C37.1113575,12.5518429 36.8949538,12.6121777 36.7373734,12.7197119 L36.6456886,12.4427324 C36.8306969,12.3265288 37.1019561,12.2485927 37.3833067,12.2485927 C38.0699505,12.2485927 38.2346035,12.7197119 38.2346035,13.1733175 L38.2346035,14.0201062 L38.2346035,14.0201062 Z" id="Fill-17" fill="#C1CCD7"></path>
                        <path d="M38.8843491,12.9106466 C38.8843491,12.6726351 38.8813303,12.4873398 38.8655464,12.298717 L39.2253853,12.298717 L39.2497081,12.6686945 L39.257557,12.6686945 C39.3681307,12.4578292 39.6259347,12.2485402 39.9942263,12.2485402 C40.3039534,12.2485402 40.7814386,12.4347111 40.7814386,13.2108319 L40.7814386,14.5620159 L40.377698,14.5620159 L40.377698,13.2576811 C40.377698,12.8932204 40.241939,12.5844534 39.8603648,12.5844534 C39.5985069,12.5844534 39.3915909,12.7753531 39.3170701,13.0045202 C39.2998199,13.0572365 39.2904186,13.1319325 39.2904186,13.1971712 L39.2904186,14.5620159 L38.8843491,14.5620159 L38.8843491,12.9106466" id="Fill-18" fill="#C1CCD7"></path>
                        <path d="M42.9604652,13.2194399 C42.9604652,13.1629581 42.9565839,13.09842 42.9415763,13.0420258 C42.8820631,12.7857124 42.6618645,12.5692428 42.3569674,12.5692428 C41.936839,12.5692428 41.68835,12.9442117 41.68835,13.4406382 C41.68835,13.9023877 41.9147588,14.2810344 42.3490323,14.2810344 C42.6195152,14.2810344 42.8680905,14.0940754 42.9415763,13.7908252 C42.9565839,13.7335553 42.9604652,13.6786498 42.9604652,13.6125355 L42.9604652,13.2194399 Z M43.3666209,11.2410017 L43.3666209,13.9778718 C43.3666209,14.1791921 43.3697259,14.4068706 43.3829223,14.5612541 L43.0200646,14.5612541 L43.0013482,14.168859 L42.9910843,14.168859 C42.8680905,14.4219324 42.6007988,14.6130071 42.2369923,14.6130071 C41.6984414,14.6130071 41.2791756,14.1504696 41.2791756,13.4622677 C41.2744318,12.705412 41.7401006,12.2476907 42.2785653,12.2476907 C42.6227065,12.2476907 42.8538591,12.4102181 42.9502876,12.5892084 L42.9604652,12.5892084 L42.9604652,11.2410017 L43.3666209,11.2410017 L43.3666209,11.2410017 Z" id="Fill-19" fill="#C1CCD7"></path>
                        <path d="M45.2141075,13.4081766 C44.7712089,13.3977559 44.2680209,13.4780563 44.2680209,13.9166 C44.2680209,14.1887634 44.4435416,14.3089951 44.6465763,14.3089951 C44.9406058,14.3089951 45.1286328,14.1228242 45.1945285,13.9309613 C45.2071212,13.8888408 45.2141075,13.8426045 45.2141075,13.7996959 L45.2141075,13.4081766 Z M45.6092231,14.0201062 C45.6092231,14.2166978 45.6178482,14.4075974 45.6420847,14.5620684 L45.2782782,14.5620684 L45.240759,14.2786088 L45.2273902,14.2786088 C45.1066388,14.4538336 44.8622037,14.6130334 44.5454039,14.6130334 C44.0931902,14.6130334 43.8627277,14.2906057 43.8627277,13.9635368 C43.8627277,13.4168458 44.3416792,13.1175363 45.2031536,13.1215644 L45.2031536,13.0746276 C45.2031536,12.8891573 45.1520931,12.546939 44.6967743,12.5518429 C44.4851145,12.5518429 44.2680209,12.6121777 44.1128555,12.7197119 L44.0194457,12.4427324 C44.2045402,12.3265288 44.4774382,12.2485927 44.7562875,12.2485927 C45.4437075,12.2485927 45.6092231,12.7197119 45.6092231,13.1733175 L45.6092231,14.0201062 L45.6092231,14.0201062 Z" id="Fill-20" fill="#C1CCD7"></path>
                        <path d="M46.2629362,13.0045377 C46.2629362,12.7379788 46.2566399,12.5088116 46.2449098,12.2979464 L46.5999187,12.2979464 L46.6164789,12.7435832 L46.631314,12.7435832 C46.7324001,12.4386692 46.9809753,12.2485577 47.2537008,12.2485577 C47.2937213,12.2485577 47.3266691,12.2517101 47.3641883,12.260467 L47.3641883,12.6449809 C47.3172678,12.6401646 47.2781098,12.6354359 47.220063,12.6354359 C46.9362974,12.6354359 46.7324001,12.8558461 46.6776308,13.1589212 C46.6682294,13.2194311 46.6635719,13.2855454 46.6635719,13.3555128 L46.6635719,14.5620334 L46.2566399,14.5620334 L46.2629362,13.0045377" id="Fill-21" fill="#C1CCD7"></path>
                        <path d="M49.2573706,13.2194399 C49.2573706,13.1629581 49.2533168,13.09842 49.2399479,13.0420258 C49.178106,12.7857124 48.9578211,12.5692428 48.654649,12.5692428 C48.2336582,12.5692428 47.9873255,12.9442117 47.9873255,13.4406382 C47.9873255,13.9023877 48.2108879,14.2810344 48.6442989,14.2810344 C48.9170244,14.2810344 49.1655996,14.0940754 49.2399479,13.7908252 C49.2533168,13.7335553 49.2573706,13.6786498 49.2573706,13.6125355 L49.2573706,13.2194399 Z M49.6616288,11.2410017 L49.6616288,13.9778718 C49.6616288,14.1791921 49.6664589,14.4068706 49.6805178,14.5612541 L49.3168838,14.5612541 L49.2979948,14.168859 L49.290146,14.168859 C49.1655996,14.4219324 48.8975317,14.6130071 48.5330352,14.6130071 C47.9943981,14.6130071 47.577461,14.1504696 47.577461,13.4622677 C47.5719409,12.705412 48.0369198,12.2476907 48.5745219,12.2476907 C48.9202157,12.2476907 49.1521445,12.4102181 49.248573,12.5892084 L49.2573706,12.5892084 L49.2573706,11.2410017 L49.6616288,11.2410017 L49.6616288,11.2410017 Z" id="Fill-22" fill="#C1CCD7"></path>
                        <path d="M50.2801688,14.1458372 C50.4041114,14.2214089 50.6157712,14.3049494 50.8178572,14.3049494 C51.1087816,14.3049494 51.2451444,14.1592352 51.2451444,13.9684232 C51.2451444,13.7719191 51.1314656,13.6635092 50.8367462,13.5521219 C50.4323155,13.4025546 50.2426497,13.1820568 50.2426497,12.9106816 C50.2426497,12.5469215 50.5389216,12.2476995 51.0108006,12.2476995 C51.2373818,12.2476995 51.4349827,12.3075089 51.5563378,12.3878969 L51.459133,12.6830907 C51.3705532,12.6305496 51.210644,12.5508621 51.0020892,12.5508621 C50.7637779,12.5508621 50.6337977,12.6918476 50.6337977,12.8598043 C50.6337977,13.0507039 50.7637779,13.1359082 51.0523735,13.2472955 C51.4349827,13.3922215 51.6379312,13.5894261 51.6379312,13.9300681 C51.6379312,14.3320957 51.3306191,14.6130159 50.8102671,14.6130159 C50.5655732,14.6130159 50.338992,14.5477772 50.1814115,14.4539037 L50.2801688,14.1458372" id="Fill-23" fill="#C1CCD7"></path>
                        <path d="M55.3133858,14.4642193 C55.1707267,14.5390029 54.8721259,14.6129984 54.4943468,14.6129984 C53.6188135,14.6129984 52.9649451,14.0519461 52.9649451,13.0140827 C52.9649451,12.022543 53.6233848,11.3587728 54.5860316,11.3587728 C54.967692,11.3587728 55.2154047,11.4424008 55.3220109,11.4996707 L55.2209248,11.8315558 C55.0735219,11.7566846 54.8572045,11.6995023 54.6008667,11.6995023 C53.87196,11.6995023 53.3891272,12.1721978 53.3891272,12.9998966 C53.3891272,13.7765428 53.8249532,14.2676277 54.5757677,14.2676277 C54.8258954,14.2676277 55.0735219,14.2159622 55.2373124,14.1363623 L55.3133858,14.4642193" id="Fill-24" fill="#C1CCD7"></path>
                        <path d="M56.6679655,14.3049845 C57.055146,14.3049845 57.3452079,13.9357075 57.3452079,13.420804 C57.3452079,13.0380414 57.1563183,12.5565015 56.6765043,12.5565015 C56.2016929,12.5565015 55.9945181,13.0045027 55.9945181,13.4351652 C55.9945181,13.9309788 56.2721599,14.3049845 56.6631354,14.3049845 L56.6679655,14.3049845 Z M56.6546828,14.6130509 C56.05498,14.6130509 55.5854299,14.1641741 55.5854299,13.4494389 C55.5854299,12.6917951 56.0777503,12.2486102 56.6907357,12.2486102 C57.330459,12.2486102 57.7623174,12.7196419 57.7623174,13.4081941 C57.7623174,14.2492032 57.1876274,14.6130509 56.6586504,14.6130509 L56.6546828,14.6130509 L56.6546828,14.6130509 Z" id="Fill-25" fill="#C1CCD7"></path>
                        <path d="M60.1405751,13.945305 C60.1405751,14.1792009 60.1443701,14.3846369 60.1576528,14.5612628 L59.8003151,14.5612628 L59.7759923,14.1918983 L59.7682298,14.1918983 C59.6662811,14.3742162 59.4264173,14.6130159 59.0289729,14.6130159 C58.6809504,14.6130159 58.2606495,14.4123961 58.2606495,13.6213887 L58.2606495,12.2979639 L58.6668052,12.2979639 L58.6668052,13.5466051 C58.6668052,13.9778806 58.7992867,14.2716733 59.1645594,14.2716733 C59.4348699,14.2716733 59.6238457,14.0806862 59.6984528,13.8936395 C59.7226893,13.8362821 59.7345056,13.7622866 59.7345056,13.6833873 L59.7345056,12.2979639 L60.1405751,12.2979639 L60.1405751,13.945305" id="Fill-26" fill="#C1CCD7"></path>
                        <path d="M60.8123061,12.9106466 C60.8123061,12.6726351 60.8083385,12.4873398 60.7950559,12.298717 L61.1523073,12.298717 L61.1767163,12.6686945 L61.1862039,12.6686945 C61.2966051,12.4578292 61.5545817,12.2485402 61.9230457,12.2485402 C62.2319103,12.2485402 62.7099993,12.4347111 62.7099993,13.2108319 L62.7099993,14.5620159 L62.3061724,14.5620159 L62.3061724,13.2576811 C62.3061724,12.8932204 62.1715347,12.5844534 61.7881492,12.5844534 C61.5279301,12.5844534 61.3185129,12.7753531 61.2441645,13.0045202 C61.2276044,13.0572365 61.2182893,13.1319325 61.2182893,13.1971712 L61.2182893,14.5620159 L60.8123061,14.5620159 L60.8123061,12.9106466" id="Fill-27" fill="#C1CCD7"></path>
                        <path d="M64.9581647,14.4832041 C64.8522485,14.5341691 64.618681,14.6136814 64.3185277,14.6136814 C63.6460291,14.6136814 63.2078743,14.1514942 63.2078743,13.4542727 C63.2078743,12.758715 63.6763894,12.2485402 64.4078837,12.2485402 C64.6445562,12.2485402 64.8577686,12.3074738 64.9667035,12.3678962 L64.8758813,12.6839314 C64.7777277,12.6313902 64.6257535,12.5749085 64.4078837,12.5749085 C63.8936555,12.5749085 63.6176525,12.9632753 63.6176525,13.4358833 C63.6176525,13.9588432 63.9493736,14.2817963 64.392186,14.2817963 C64.6219585,14.2817963 64.7747952,14.2254896 64.8891639,14.1745247 L64.9581647,14.4832041" id="Fill-28" fill="#C1CCD7"></path>
                        <path d="M65.8367254,14.5612628 L65.4315185,14.5612628 L65.4315185,12.2978763 L65.8367254,12.2978763 L65.8367254,14.5612628 Z M65.6259281,11.8824507 C65.4731777,11.8824507 65.3726953,11.7607303 65.3726953,11.6158918 C65.3726953,11.47009 65.4786978,11.3531859 65.634467,11.3531859 C65.7905812,11.3531859 65.8916673,11.47009 65.8916673,11.6158918 C65.8916673,11.7607303 65.7905812,11.8824507 65.6290331,11.8824507 L65.6259281,11.8824507 L65.6259281,11.8824507 Z" id="Fill-29" fill="#C1CCD7"></path>
                        <polygon id="Fill-30" fill="#C1CCD7" points="66.5100865 14.5612628 67.0100865 14.5612628 67.0100865 11.2410105 66.5100865 11.2410105"></polygon>
                        <polygon id="Fill-31" fill="#C1CCD7" points="30.7918371 13.057219 6.95371497 20.6662328 -8.62509341e-06 1.46803562 25.0257027 0.0411922857"></polygon>
                        <path d="M12.7683741,9.20850744 C12.7683741,9.6946885 12.6633204,10.1212353 12.4485556,10.4929642 C12.237672,10.8638173 11.9390713,11.1717962 11.5541333,11.4176889 C11.1692816,11.6658585 10.706804,11.8506283 10.1643718,11.9740125 C9.62271592,12.0972216 9.02309936,12.1586072 8.3638834,12.1586072 L7.87941185,12.1586072 L7.87941185,14.6312827 L4.77998418,14.6312827 L4.77998418,6.38967309 L8.4101139,6.38967309 C9.7669275,6.38967309 10.8338517,6.6227808 11.6066601,7.08829566 C12.3818836,7.55381052 12.7683741,8.26136509 12.7683741,9.20850744 Z M9.79288903,9.24344732 C9.79288903,8.52801158 9.27081207,8.16985586 8.22752065,8.16985586 L7.84810275,8.16985586 L7.84810275,10.3791249 L8.19767783,10.3791249 C8.71345847,10.3791249 9.10848779,10.2876157 9.38285205,10.1045097 C9.65652629,9.92000259 9.79288903,9.63417857 9.79288903,9.24344732 Z" id="Path" fill="#F6F7F8"></path>
                        <path d="M20.4275355,14.6249865 C19.9509991,14.7171963 19.4116719,14.7634325 18.8073115,14.7634325 C17.9504947,14.7634325 17.1862251,14.663867 16.5121739,14.4642105 C15.8411416,14.2660427 15.2720579,13.9834587 14.8056128,13.6164586 C14.3392539,13.2488454 13.984935,12.8039968 13.7419661,12.2796358 C13.498911,11.7518596 13.3774696,11.1669011 13.3774696,10.522396 C13.3774696,9.8849839 13.5067598,9.30387844 13.7655126,8.77794122 C14.0249555,8.25182886 14.390142,7.80295204 14.8613309,7.42807072 C15.331571,7.05415265 15.8935822,6.76517616 16.5458118,6.56140394 C17.1956264,6.35920797 17.9136655,6.25657753 18.6960478,6.25657753 C19.2995457,6.25657753 19.8593143,6.27496694 20.3491334,6.38241365 C20.8412813,6.4914366 20.8516314,6.50649841 21.2427794,6.64993583 L21.2372594,8.8614817 C20.931586,8.68634443 20.5858923,8.54150591 20.2056981,8.42530233 C19.8255039,8.31076255 19.4171057,8.25182886 18.9836085,8.25182886 C18.2835958,8.25182886 17.7153746,8.44763233 17.2748048,8.83669977 C16.8358737,9.22830671 16.6163651,9.78533079 16.6163651,10.5096985 C16.6163651,10.8852804 16.6853658,11.2132249 16.8217286,11.4956338 C16.9605063,11.7789183 17.1462909,12.0137774 17.3783059,12.2007364 C17.6119597,12.3886587 17.8839089,12.5302572 18.1966549,12.6241308 C18.509487,12.7204563 18.8450032,12.7682688 19.2054459,12.7682688 C19.5754625,12.7682688 19.9391827,12.728425 20.2935878,12.6490003 C20.6477342,12.5692253 21.0255996,12.4538974 21.428564,12.3018782 L21.4332215,14.3670969 C20.9433162,14.5128111 20.903382,14.5333022 20.4275355,14.6249865" id="Fill-33" fill="#F6F7F8"></path>
                        <polygon id="Fill-34" fill="#F6F7F8" points="22.7022834 14.6313177 25.8158562 14.6313177 25.8158562 6.38962055 22.7022834 6.38962055"></polygon>
                        <path d="M26.1504582,3.80701136 C26.1504582,4.36175866 25.9687274,4.79793803 25.607336,5.11379809 C25.245082,5.42974572 24.7967496,5.58736927 24.2637188,5.58736927 C23.7307742,5.58736927 23.2823555,5.42974572 22.9201878,5.11379809 C22.5573301,4.79793803 22.3769794,4.36175866 22.3769794,3.80701136 C22.3769794,3.24044229 22.5573301,2.79804555 22.9201878,2.48279847 C23.2823555,2.16606272 23.7307742,2.00765106 24.2637188,2.00765106 C24.7967496,2.00765106 25.245082,2.16606272 25.607336,2.48279847 C25.9687274,2.79804555 26.1504582,3.24044229 26.1504582,3.80701136" id="Fill-35" fill="#F6F7F8"></path>
                    </g>
                </g>
            </g>
        </g>
    </g>
</svg>