<?xml version="1.0" encoding="UTF-8"?>
<svg width="52px" height="21px" viewBox="0 0 52 21" version="1.1" xmlns="http://www.w3.org/2000/svg" xmlns:xlink="http://www.w3.org/1999/xlink">
    <!-- Generator: sketchtool 41.2 (35396) - http://www.bohemiancoding.com/sketch -->
    <title>FED39008-B6E0-4774-8AD5-118320D6A3B2</title>
    <desc>Created with sketchtool.</desc>
    <defs></defs>
    <g id="Symbols" stroke="none" stroke-width="1" fill="none" fill-rule="evenodd">
        <g id="Logos/Security/Dark" fill="#C1CCD7">
            <g id="secure">
                <g id="Logo/MC-SecureCode/Dark">
                    <g id="Calque_4" transform="translate(0.000000, 0.400444)">
                        <g id="Group">
                            <path d="M49.5054473,8.96920859 C49.376526,8.96920859 49.2459603,8.93820859 49.1183545,8.97420859 C49.2459603,8.93720859 49.376526,8.96920859 49.5054473,8.97020859 C49.6741631,8.97020859 49.842879,8.94020859 50.0115949,8.97620859 C49.8432079,8.94120859 49.6741631,8.97120859 49.5054473,8.96920859 L49.5054473,8.96920859 Z" id="Shape"></path>
                            <path d="M0.84259273,8.96435541 C1.16029163,8.95200091 1.47864829,8.96135026 1.79634719,8.96135026 C2.21895907,8.96168417 2.22487893,8.94766014 2.28111755,8.5095764 C2.34163163,8.04177508 2.41694534,7.57530939 2.48929913,7.10884369 C2.65900165,6.01697338 2.82442871,4.92443526 3.00761535,3.8352362 C3.03951679,3.64390847 3.01452184,3.43121079 3.15594061,3.25724614 C3.1612027,3.87263359 3.23026768,4.48034122 3.24046299,5.09138791 C3.26019584,6.25972253 3.28617742,7.42805715 3.29999042,8.59705958 C3.30295035,8.8631821 3.39207706,8.9893983 3.66998137,8.96502322 C3.87717631,8.94732624 4.08766005,8.95233482 4.29551274,8.96435541 C4.4662019,8.97437257 4.54907988,8.89356749 4.59972753,8.74130667 C5.06081847,7.34958941 5.52322494,5.95820605 5.98661806,4.56749051 C6.13757437,4.1130454 6.29247725,3.66060373 6.44573572,3.20716034 C6.54439997,3.54740984 6.43093608,3.86628939 6.38489276,4.1888419 C6.17177797,5.6897462 5.93235272,7.18664363 5.69983396,8.68454277 C5.67056356,8.87520269 5.72417114,8.96969789 5.93103719,8.9640215 C6.27866425,8.95500606 6.6262913,8.96201807 6.97424724,8.96201807 C7.44619126,8.96201807 7.45375552,8.94198375 7.5244649,8.46516699 C7.75040604,6.93487904 7.98391144,5.40659451 8.21873237,3.87830998 C8.3811995,2.8258405 8.54892874,1.77470663 8.71896013,0.723238865 C8.75743919,0.484830486 8.70646266,0.376645171 8.43316268,0.383991087 C7.73856633,0.402689784 7.04232558,0.396679488 6.34707147,0.385326708 C6.14283646,0.381987655 6.04022564,0.457450252 5.98036932,0.651449227 C5.58834335,1.91728419 5.19039753,3.18178354 4.79212282,4.44594898 C4.70102283,4.73444315 4.60104305,5.02059999 4.49284125,5.34415422 C4.40239902,5.20491571 4.43693151,5.10407631 4.43495822,5.00958111 C4.40634559,3.56911368 4.471464,2.12731062 4.38299505,0.686509283 C4.36786653,0.437082029 4.27577989,0.382989371 4.05674525,0.386328424 C3.4410803,0.395677772 2.82442871,0.401354162 2.20909265,0.382655466 C1.95157895,0.374975644 1.85719014,0.479154096 1.82134213,0.718230286 C1.64966633,1.85951858 1.47075515,2.99947125 1.29217285,4.14009173 C1.0560364,5.64767413 0.81924219,7.15559043 0.577185886,8.66217112 C0.540022351,8.89256577 0.616322707,8.97337085 0.84259273,8.96435541 L0.84259273,8.96435541 Z" id="Shape"></path>
                            <path d="M51.4001298,0.388665761 C51.0130371,0.390335288 50.6259443,0.402355878 50.2391804,0.385660614 C49.9842978,0.374307834 49.8902378,0.47815238 49.8616252,0.727913539 C49.7938758,1.31592076 49.7014602,1.90092283 49.6179245,2.48692662 C49.5939162,2.65688442 49.514327,2.66589986 49.4018498,2.55637892 C49.3442956,2.50095065 49.2916747,2.44017988 49.2337917,2.3847516 C48.6644989,1.83948426 48.0004885,1.73597362 47.284186,1.99742146 C46.572159,2.25719978 46.1271832,2.81916239 45.7762673,3.46994381 C45.4181161,4.13341362 45.2227609,4.8509761 45.1648778,5.59758834 C45.1014038,6.40597305 45.1467894,7.2103509 45.5427619,7.94861551 C45.7516013,8.33794908 46.0308211,8.66584408 46.4343579,8.84782246 C47.1838774,9.18673633 47.8814336,9.07855102 48.5174892,8.55164846 C48.5674791,8.5099103 48.6056293,8.42643398 48.6898228,8.46416528 C48.744417,8.48787255 48.7365238,8.55064675 48.7273152,8.59705958 C48.6585791,8.94131594 48.8486722,8.98873049 49.1183545,8.96268588 C49.2459603,8.95033139 49.376526,8.96101635 49.5054473,8.96101635 C49.6741631,8.96135026 49.842879,8.95166701 50.0115949,8.9636876 C50.248718,8.98171848 50.3717194,8.90959494 50.4042786,8.64180289 C50.4881432,7.96531077 50.6012782,7.2921577 50.7029024,6.6173351 C51.0044862,4.6239205 51.3027811,2.63017199 51.6139024,0.638093015 C51.6467904,0.426063154 51.5688457,0.388331856 51.4001298,0.388665761 L51.4001298,0.388665761 Z M48.9022798,6.35622116 C48.7848693,6.67176166 48.5793188,6.91751596 48.3188452,7.1028334 C47.75613,7.50185022 47.0931062,7.153587 47.0066106,6.42033098 C46.9845756,6.23167449 47.0029929,6.03800942 47.0029929,5.84668168 C46.961225,5.22661955 47.0875153,4.64228529 47.4282358,4.12306256 C47.8245372,3.51869398 48.5118982,3.4378889 48.9022798,3.93206873 C49.0719823,4.14676984 49.114079,4.40888549 49.1354563,4.6683299 C49.1828151,5.24631997 49.1065148,5.8096182 48.9022798,6.35622116 L48.9022798,6.35622116 Z" id="Shape"></path>
                            <path d="M46.5208536,10.9637803 C46.1354052,10.9664515 45.7479836,10.993164 45.3622063,10.9440799 C45.2099345,10.9250473 45.1684955,11.0469227 45.1510648,11.1784814 C45.0711468,11.7851873 44.9879399,12.3905576 44.9063775,12.9962618 C44.8958533,13.0727261 44.9293991,13.1749012 44.8313927,13.2052865 C44.7402927,13.2333346 44.6935916,13.1425123 44.6389974,13.0870841 C44.4291714,12.8737186 44.2311851,12.6520055 43.9342057,12.5481609 C43.1646245,12.2766959 42.3170986,12.5701987 41.7645788,13.3118023 C41.0361077,14.2888092 40.7503102,15.4090615 40.7282752,16.6134579 C40.7266308,16.9570464 40.7305774,17.2992993 40.80326,17.6352081 C40.9101463,18.1310574 41.0798488,18.6028656 41.4044542,18.9982095 C41.9951242,19.7167737 43.0212325,19.7808835 43.8388303,19.1604874 C43.8980288,19.1154102 43.9414411,19.0082266 44.0318833,19.0553073 C44.1167346,19.1000506 44.0749667,19.2018917 44.0697046,19.2763526 C44.057536,19.4466443 44.1233122,19.5100863 44.2923569,19.5060794 C44.6498504,19.497064 45.0066861,19.4980657 45.3641796,19.5050777 C45.5292778,19.5090846 45.5963695,19.4289473 45.6177468,19.2773543 C45.7571922,18.3043543 45.9002554,17.3326899 46.0373987,16.3596898 C46.191315,15.2678195 46.3383247,14.1756153 46.4905965,13.0834111 C46.5757767,12.4676897 46.6652323,11.8529701 46.7546878,11.2382505 C46.7816561,11.0522652 46.7313373,10.9624447 46.5208536,10.9637803 L46.5208536,10.9637803 Z M44.2377627,16.9203168 C44.0269501,17.4973052 43.6441328,17.8208594 43.1998148,17.8178543 C42.8117354,17.8148491 42.5473152,17.540379 42.467726,17.0492043 C42.360182,16.3817276 42.4348379,15.7296106 42.6518993,15.0948566 C42.7199776,14.8968508 42.8117354,14.7075265 42.9603895,14.5492553 C43.2057346,14.2891431 43.4704837,14.0968137 43.8496833,14.2170196 C44.2255941,14.3362238 44.364053,14.6554372 44.4176606,14.9980241 C44.518627,15.6494733 44.4656772,16.2972496 44.2377627,16.9203168 L44.2377627,16.9203168 Z" id="Shape"></path>
                            <path d="M41.0232813,8.53762444 C41.1597669,7.58332311 41.3126965,6.63169303 41.4337246,5.67538827 C41.518247,5.0085794 41.6557192,4.34744692 41.6294087,3.66661402 C41.5952051,2.7881092 41.024268,2.07588921 40.1964749,1.89791769 C39.2654132,1.69757451 38.368884,1.86619668 37.477288,2.12864624 C37.3391581,2.16904878 37.2914704,2.24684872 37.273053,2.38374989 C37.2243787,2.74203027 37.1569581,3.0973055 37.1053238,3.45491807 C37.0566494,3.79182851 37.0655292,3.80451691 37.3980278,3.70467923 C38.0610515,3.50500386 38.7290085,3.41151038 39.4193294,3.52437037 C39.85115,3.59482439 40.0550561,3.90769365 39.9327124,4.32874822 C39.8939045,4.46097472 39.8327327,4.50805536 39.6972338,4.48368028 C39.3232962,4.4158975 38.9503454,4.44327774 38.5747634,4.49302963 C36.9810068,4.70639511 36.1019083,5.74250323 36.2212921,7.36928982 C36.3202852,8.72594703 37.217801,9.27088047 38.4839923,8.976376 C38.8776627,8.88488595 39.1930594,8.64747928 39.4749103,8.36833446 C39.5735746,8.45982451 39.5443042,8.5473077 39.5360821,8.61943124 C39.5045096,8.88455204 39.6071204,8.98706097 39.8712117,8.96502322 C40.0981395,8.94599062 40.3280272,8.96168417 40.5562705,8.96168417 C40.9657272,8.96135026 40.9624384,8.96068245 41.0232813,8.53762444 L41.0232813,8.53762444 Z M39.6360619,6.35154649 C39.5666681,6.62534883 39.4680038,6.88713058 39.2969858,7.11652351 C39.0615071,7.4307284 38.6661923,7.59000122 38.3313916,7.51119957 C38.0423053,7.4434168 37.9377212,7.22571055 37.8929934,6.96559832 C37.8331371,6.61399605 38.0344122,6.20763331 38.3481645,6.01730729 C38.5500974,5.89443014 38.8622053,5.82698127 39.2368006,5.82564565 C39.6959182,5.82330831 39.7521569,5.89276061 39.6360619,6.35154649 L39.6360619,6.35154649 Z" id="Shape"></path>
                            <path d="M11.5743036,4.44528117 C10.8422149,4.42758419 10.1222947,4.48635152 9.47472832,4.87067651 C8.40816773,5.50409485 8.17268905,6.56858493 8.34995582,7.72356334 C8.39599914,8.02574763 8.54399552,8.28519204 8.72783992,8.53194805 C9.24714277,9.22981012 10.4501889,9.14399646 11.0523697,8.76434614 C11.2260188,8.65415739 11.3874993,8.52493604 11.6002852,8.37133961 C11.6002852,8.49455066 11.6094939,8.56533858 11.5986408,8.63345526 C11.5578596,8.88321642 11.6499462,8.98138458 11.9045,8.96535712 C12.2014794,8.94665843 12.5004321,8.95968073 12.7980693,8.96101635 C12.9704028,8.96168417 13.0578851,8.9072576 13.0809068,8.70357537 C13.1552339,8.05513129 13.2713288,7.4120297 13.3479581,6.76391953 C13.4703017,5.72747749 13.7189357,4.70672901 13.682101,3.65025267 C13.6498707,2.73268092 13.1042573,2.07054672 12.2225278,1.89524644 C11.3200788,1.7159393 10.4544644,1.8795529 9.58884997,2.1196308 C9.40336118,2.17138612 9.36225107,2.29793623 9.33692725,2.44719189 C9.27345324,2.82316925 9.22050343,3.20081614 9.16097599,3.57779522 C9.13663881,3.73005603 9.17643339,3.78348088 9.33692725,3.73506461 C9.74539726,3.61185356 10.1611026,3.52437037 10.5873322,3.49064594 C10.9846203,3.45925884 11.3819084,3.43855671 11.7551881,3.61185356 C11.9982311,3.72504745 12.0952509,4.03891843 11.9992177,4.34711301 C11.9150242,4.61690849 11.7206556,4.44895413 11.5743036,4.44528117 L11.5743036,4.44528117 Z M11.7614368,5.92181038 C11.7098026,6.4467095 11.5746325,6.97594939 11.1326167,7.30751734 C10.7471683,7.59567761 10.2620691,7.56729566 10.0709893,7.24875001 C9.84866584,6.8761117 9.99699111,6.20295863 10.3666532,5.97556913 C10.6560683,5.79826542 10.9704784,5.67638998 11.3325762,5.67638998 L11.6042318,5.67638998 C11.7153935,5.67638998 11.7722899,5.80928429 11.7614368,5.92181038 L11.7614368,5.92181038 Z" id="Shape"></path>
                            <path d="M25.0873599,6.07743248 C24.722631,6.07743248 24.3579022,6.08743248 23.9928444,6.08143248 C24.3579022,6.08743248 24.722631,6.07743248 25.0873599,6.07743248 C25.4372891,6.07743248 25.7868895,6.05943248 26.1368187,6.07043248 C25.7872183,6.05943248 25.4372891,6.07743248 25.0873599,6.07743248 L25.0873599,6.07743248 Z" id="Shape"></path>
                            <path d="M21.7350774,6.78261822 C21.8705763,7.72189381 22.3234453,8.46049232 23.2163568,8.81710317 C24.1960928,9.20844018 25.2008238,9.09591409 26.1956883,8.83813921 C26.3282273,8.80374696 26.3838082,8.68721401 26.4051854,8.5666742 C26.4772103,8.16198099 26.5479197,7.75695387 26.602514,7.3492555 C26.6446107,7.03438281 26.6087627,7.01935707 26.3160587,7.13321878 C25.5724591,7.42271467 24.8189931,7.60202181 24.0346123,7.29349332 C23.6205513,7.13054754 23.3821127,6.7495616 23.3830993,6.30646927 C23.3834282,6.1191484 23.450191,6.06305231 23.6284445,6.06672527 C23.7504592,6.06906261 23.8718163,6.07039823 23.9931733,6.07139995 C24.3582311,6.07340338 24.7229599,6.07006433 25.0876888,6.07006433 C25.437618,6.07006433 25.7872183,6.06405403 26.1371476,6.06772699 C26.2535714,6.0687287 26.3699952,6.07106604 26.4867479,6.07507291 C26.6886807,6.08141711 26.7945804,6.02932788 26.8389793,5.81663021 C26.983358,5.12344282 27.0560406,4.42257561 26.9455367,3.72337792 C26.8531212,3.13570461 26.602514,2.60946987 26.1045883,2.2455131 C24.9890245,1.43078418 23.3801394,1.74064829 22.5562929,2.93168847 C21.7505348,4.09735185 21.5354467,5.39858078 21.7350774,6.78261822 L21.7350774,6.78261822 Z M24.6890852,3.4191902 C25.147874,3.45959274 25.5191804,4.01654677 25.3909169,4.46297815 C25.3524379,4.59687417 25.2669288,4.62559003 25.1452429,4.62325269 C24.9183151,4.61824411 24.6910585,4.62191707 24.4638018,4.62191707 C24.2266787,4.62158316 23.9895556,4.62024754 23.7521036,4.62191707 C23.637982,4.62325269 23.5646416,4.59720808 23.5682593,4.45496442 C23.5817434,3.93574169 24.1849108,3.37444689 24.6890852,3.4191902 L24.6890852,3.4191902 Z" id="Shape"></path>
                            <path d="M38.8256995,12.7438294 C37.5032696,12.1708479 36.0213325,12.7404904 35.3510734,14.0370446 C34.9406301,14.8307375 34.7597456,15.6725127 34.7735586,16.563706 C34.7771763,16.8855907 34.7748741,17.2058059 34.8340727,17.5256871 C34.9705582,18.2696281 35.2293874,18.9444507 35.8674163,19.3928855 C37.0023841,20.1925887 38.9776425,19.8313032 39.7163088,18.316041 C40.0063818,17.7213556 40.1537204,17.0972866 40.2171944,16.4374898 C40.2931658,15.6561514 40.2823128,14.8911744 40.0155904,14.1479012 C39.7929381,13.5318459 39.434458,13.0076146 38.8256995,12.7438294 L38.8256995,12.7438294 Z M38.5389154,15.5913738 C38.5343111,16.4177894 38.4586685,17.0939476 38.0564472,17.6822887 C37.6805364,18.231229 36.9737715,18.1944994 36.6787653,17.6195145 C36.2393805,16.7640492 36.5097206,15.1362608 37.2026725,14.4647773 C37.5914097,14.0887999 38.1103837,14.1826273 38.3583598,14.6671239 C38.529049,15.0023648 38.5504262,15.3593096 38.5389154,15.5913738 L38.5389154,15.5913738 Z" id="Shape"></path>
                            <path d="M21.0125262,12.6085978 C20.6556905,12.6192827 20.2965526,12.6303016 19.9407035,12.6052587 C19.6746389,12.58656 19.5661082,12.6910724 19.530918,12.9455082 C19.3904859,13.968594 19.2490671,14.991346 19.091862,16.0117605 C19.0191794,16.4812314 18.879405,16.933673 18.5867011,17.3183319 C18.3732574,17.6004819 17.9818892,17.7337101 17.6895141,17.6305334 C17.4346315,17.5400451 17.3037369,17.2876127 17.300777,16.8839212 C17.2961726,16.2571809 17.4474578,15.6494733 17.5207982,15.0320824 C17.6066361,14.3055045 17.7319397,13.5832673 17.8375105,12.8590267 C17.8611899,12.6974166 17.7967293,12.6095995 17.6257112,12.6119368 C17.3580022,12.614942 17.0896355,12.6106012 16.8215976,12.6129385 C15.9036911,12.618281 16.1526539,12.4964056 16.0082752,13.3872649 C15.8464659,14.3863096 15.7313576,15.393034 15.6011207,16.3974211 C15.5050875,17.1406943 15.5034431,17.8799606 15.7530637,18.5975231 C15.9375658,19.1280986 16.2513182,19.5648468 16.8255441,19.6646844 C17.5339535,19.7872277 18.0992997,19.4770297 18.5439466,18.925752 C18.6222202,18.8292534 18.6702368,18.7003659 18.8392816,18.6669754 C18.8205353,18.9043821 18.8182332,19.1227561 18.7813985,19.334786 C18.7564036,19.4797009 18.8014603,19.5164305 18.9277505,19.5157627 C19.334905,19.5140931 19.7420595,19.5144271 20.1488851,19.5157627 C20.2607046,19.5157627 20.3353605,19.4873807 20.3481869,19.3511474 C20.3807461,19.0022163 20.416923,18.6529514 20.4642818,18.305356 C20.6339843,17.0638961 20.8073045,15.823104 20.9829269,14.5826459 C21.0651471,14.0066592 21.1552605,13.4330099 21.2417561,12.858025 C21.2693821,12.674711 21.198015,12.6029214 21.0125262,12.6085978 L21.0125262,12.6085978 Z" id="Shape"></path>
                            <path d="M5.38410835,11.0245511 C4.53132031,10.7193616 3.66307487,10.6696097 2.79417168,10.9056808 C2.13016125,11.0859896 1.64374647,11.5117189 1.34314938,12.1538188 C1.17377574,12.5144365 1.08991113,12.896758 1.05373423,13.2850899 C0.958358788,14.2998281 1.22212123,15.1833415 2.19560853,15.7436346 C2.52120057,15.9312894 2.86323665,16.0935673 3.12831462,16.3820615 C3.57789473,16.8725684 3.41641424,17.6692664 2.79351391,17.8889761 C2.1137172,18.1293879 1.46253313,17.9988309 0.851143632,17.6498999 C0.65611729,17.5383755 0.594945452,17.5761068 0.556137512,17.7864672 C0.476219466,18.2208779 0.388079399,18.6532853 0.286126337,19.0830214 C0.245016231,19.2563183 0.281193124,19.3404624 0.449580118,19.4008993 C1.00242882,19.5999068 1.553962,19.7945736 2.17620456,19.7454895 C2.29328615,19.7454895 2.43371827,19.7581779 2.57119046,19.7431522 C3.60913841,19.6316278 4.42969613,19.1845286 4.84869033,18.1617767 C5.06114735,17.6432218 5.10883508,17.0912763 5.08482678,16.5333206 C5.04766324,15.66116 4.71483582,14.9602928 3.94657016,14.5095206 C3.65518173,14.3385611 3.36247778,14.1665999 3.08490234,13.9736026 C2.79121175,13.7695865 2.70767601,13.4600563 2.77082114,13.119139 C2.83133521,12.7942491 3.05398755,12.6156098 3.36839763,12.5755412 C3.89362035,12.5080923 4.41489649,12.4870563 4.90690224,12.7528449 C5.21539247,12.9187958 5.22953435,12.9081108 5.31241232,12.5575103 C5.40219679,12.1765243 5.47126177,11.7895281 5.57584588,11.4132168 C5.63537331,11.2005192 5.5840679,11.0960068 5.38410835,11.0245511 L5.38410835,11.0245511 Z" id="Shape"></path>
                            <path d="M31.2791996,6.97795282 C31.612027,8.23610796 32.6568815,9.13865397 34.1322409,9.09157332 C34.5466308,9.11394498 34.960034,9.00275452 35.3734373,8.89857606 C35.476377,8.87219755 35.5852365,8.83613577 35.6056271,8.69656336 C35.6855452,8.1502943 35.7720408,7.60502696 35.8486701,7.05742228 C35.8690607,6.91250738 35.8318972,6.84973319 35.6661412,6.93654856 C35.3928412,7.07946003 35.1001373,7.17796209 34.7985535,7.24841611 C33.9973998,7.43640479 33.2561024,7.03505062 33.008784,6.24169165 C32.6489883,5.08604543 32.8380948,3.98382405 33.4570486,2.97576397 C33.8865669,2.27589848 34.5446575,1.97538371 35.3711351,2.12998187 C35.6954116,2.19041872 36.0055462,2.29192593 36.2962769,2.44886142 C36.4659794,2.54035147 36.5422798,2.5046236 36.5702347,2.30094138 C36.6343664,1.8231229 36.7165866,1.34797567 36.7925581,0.871492815 C36.8142642,0.735593361 36.7751274,0.658461238 36.6396285,0.592681895 C36.412043,0.481157528 36.169,0.437082029 35.9328636,0.365960201 C34.4940099,-0.0681166798 33.0548273,0.376311265 32.175071,1.60541665 C31.0091884,3.23454058 30.7720653,5.06133643 31.2791996,6.97795282 L31.2791996,6.97795282 Z" id="Shape"></path>
                            <path d="M27.6526305,16.7311641 C27.270471,16.7311641 26.8883114,16.7461641 26.5061519,16.7311641 C26.8883114,16.7451641 27.270471,16.7311641 27.6526305,16.7311641 C28.0995796,16.7311641 28.5461998,16.7211641 28.9928199,16.7361641 C28.5461998,16.7211641 28.0995796,16.7311641 27.6526305,16.7311641 L27.6526305,16.7311641 Z" id="Shape"></path>
                            <path d="M27.3743973,12.4910631 C26.2818551,12.4650185 25.5655526,13.062709 25.0758491,13.9762739 C24.476957,15.0941888 24.3398137,16.3045955 24.5364845,17.5480588 C24.6512639,18.2726333 24.9308126,18.9354353 25.58397,19.3304452 C26.5916609,19.9398224 27.6519727,19.8276302 28.713929,19.4903859 C28.8027268,19.4613361 28.8530456,19.3832023 28.8668586,19.2833646 C28.9270438,18.8569675 28.9780203,18.4282331 29.0556362,18.0048412 C29.1069416,17.7243608 29.0168282,17.7103368 28.8053579,17.8198577 C28.2863839,18.0889854 27.7309041,18.1567681 27.1579937,18.1190368 C26.4860901,18.0746274 26.0631494,17.6385471 26.0621627,17.0108052 C26.0618338,16.8027822 26.1368187,16.7219771 26.3420403,16.72565 C26.3969634,16.7273196 26.4515576,16.7279874 26.505823,16.7286552 C26.8879825,16.7336638 27.2701421,16.7286552 27.6523016,16.7286552 C28.0992507,16.7286552 28.5458709,16.7253161 28.9924911,16.7303247 C29.1243723,16.7316603 29.2240232,16.7146312 29.2539513,16.5576957 C29.4318759,15.6324441 29.5506019,14.7068586 29.2102102,13.7936277 C28.9198084,13.013291 28.1989016,12.5107635 27.3743973,12.4910631 L27.3743973,12.4910631 Z M27.9006067,15.2441123 C27.8489724,15.3432821 27.7611612,15.3596435 27.6713767,15.3596435 L27.0175616,15.3596435 L26.3637465,15.3596435 C26.2611356,15.3596435 26.1943728,15.3179053 26.1996349,15.1900196 C26.2206833,14.6657883 26.7689277,14.1218566 27.2684977,14.1362145 C27.7309041,14.1505724 28.1156947,14.8260628 27.9006067,15.2441123 L27.9006067,15.2441123 Z" id="Shape"></path>
                            <path d="M10.5097163,14.6567728 C10.4383492,13.965255 10.2344431,13.327162 9.65100845,12.9027683 C8.62457133,12.15649 7.19361077,12.4426468 6.45428662,13.5358528 C5.61004949,14.7826551 5.41370762,16.1700316 5.6629993,17.6322029 C5.78238305,18.3344057 6.07475812,18.9531323 6.71607578,19.338459 C7.71357139,19.9391546 8.74823053,19.8119367 9.79209834,19.5024065 C9.8940514,19.472355 9.95456548,19.3938872 9.97068064,19.2823629 C10.0311947,18.8653152 10.0982864,18.4492692 10.1515651,18.0308858 C10.1620893,17.9477434 10.2423362,17.8428972 10.1564983,17.7761161 C10.0624384,17.7039926 9.969694,17.7958165 9.88221169,17.8355512 C9.25996913,18.118369 8.61799371,18.2285578 7.94609014,18.0575983 C7.44520461,17.9300464 7.15052738,17.5106614 7.16762918,16.9840927 C7.17322015,16.8074568 7.23274759,16.7229788 7.41264541,16.7276535 C8.30555691,16.7526964 9.19945505,16.6802389 10.091051,16.7677221 C10.2587803,16.7840835 10.3600756,16.722311 10.3844127,16.5490141 C10.44986,16.0818806 10.5449066,15.6167506 10.5130052,15.1232385 C10.5120185,14.9786575 10.5258315,14.8163796 10.5097163,14.6567728 L10.5097163,14.6567728 Z M8.56866159,15.3596435 L8.15328508,15.3596435 C7.93556596,15.3596435 7.71817572,15.3446178 7.50078548,15.3419465 C7.32878079,15.3392753 7.26793784,15.2517921 7.33601617,15.0825021 C7.42843169,14.8504379 7.50999414,14.6090244 7.66489702,14.4080134 C7.85433239,14.1619252 8.23221648,14.0450583 8.55221754,14.1392196 C8.80973125,14.215684 9.00903304,14.5275515 9.02054387,14.8547787 C9.03764568,15.3456195 9.03764568,15.3596435 8.56866159,15.3596435 L8.56866159,15.3596435 Z" id="Shape"></path>
                            <path d="M49.8185418,16.7362991 C49.4982119,16.7362991 49.1785397,16.7402991 48.8582097,16.7372991 C49.1782108,16.7392991 49.4982119,16.7362991 49.8185418,16.7362991 C50.1461071,16.7362991 50.4740013,16.7172991 50.8012378,16.7292991 C50.4740013,16.7172991 50.1461071,16.7362991 49.8185418,16.7362991 L49.8185418,16.7362991 Z" id="Shape"></path>
                            <path d="M50.4779479,12.7501736 C49.4768346,12.1982282 48.2152477,12.5331352 47.5315044,13.5231644 C46.6560236,14.7913367 46.4725081,16.2087646 46.737586,17.6983162 C46.8546676,18.3594486 47.1486871,18.9494593 47.7344239,19.3147517 C48.7493502,19.9471683 49.8182129,19.8206182 50.8913511,19.4903859 C50.968967,19.4666786 51.0238901,19.3965585 51.0363876,19.3114126 C51.101506,18.8649813 51.1659666,18.418216 51.225823,17.970449 C51.2544356,17.7564157 51.1685977,17.7213556 50.988371,17.8155169 C50.4894587,18.075963 49.9556851,18.1470849 49.4021787,18.1217081 C48.7148177,18.090321 48.3629152,17.7674346 48.2284029,17.0845982 C48.1685466,16.7834157 48.2964813,16.7266518 48.5375509,16.7283213 C48.6444372,16.7289891 48.7509946,16.729323 48.8578809,16.729323 C49.1782108,16.7303247 49.497883,16.7289891 49.8182129,16.7289891 C50.1457783,16.7289891 50.4736725,16.7226449 50.8009089,16.7266518 C50.9104262,16.7276535 51.0192858,16.7296569 51.1281454,16.7336638 C51.3287627,16.7413436 51.4001298,16.6655471 51.4435421,16.4762228 C51.584632,15.8518199 51.6379107,15.2170659 51.5714767,14.5873205 C51.4899143,13.8183367 51.1847129,13.1398411 50.4779479,12.7501736 L50.4779479,12.7501736 Z M50.0855931,15.2020402 C50.0533627,15.2931963 49.9908754,15.3269208 49.9040508,15.3269208 C49.4478931,15.3282564 48.9914065,15.3282564 48.5342621,15.3285903 C48.4471087,15.3285903 48.3813325,15.3095577 48.3731105,15.1993689 C48.3372625,14.719547 48.8950444,14.1181836 49.3781704,14.120187 C49.8885934,14.1228583 50.2628598,14.6961737 50.0855931,15.2020402 L50.0855931,15.2020402 Z" id="Shape"></path>
                            <path d="M34.2407716,17.6008158 C34.0753446,17.6903024 33.9000511,17.7634277 33.723442,17.8305427 C32.9298526,18.1330609 32.2033548,17.8235306 31.8553988,17.0385193 C31.6840519,16.6525248 31.6442573,16.2448264 31.6731988,15.8418027 C31.6383375,15.2230762 31.7672588,14.6480913 31.9718227,14.0864626 C32.2908371,13.2059543 32.9860912,12.6870655 33.8023735,12.7298054 C34.1858485,12.7508414 34.53512,12.8954224 34.8686052,13.0780686 C35.0202192,13.161211 35.1077015,13.1491904 35.1307232,12.9548576 C35.1665712,12.6456613 35.2159033,12.3384684 35.2501069,12.029606 C35.3346293,11.2669663 35.3323272,11.2669663 34.5818211,11.0245511 C33.2024948,10.5784536 31.8343505,11.0265545 31.0282635,12.2463105 C29.914673,13.9301949 29.7561524,15.7890457 30.2185589,17.7116724 C30.3800394,18.3831559 30.7723942,18.9534662 31.3824682,19.3327826 C32.2517003,19.8727074 33.1541493,19.7989144 34.0746868,19.5127575 C34.1868352,19.4773636 34.2236698,19.4049061 34.2391272,19.2920461 C34.311481,18.7754946 34.3923857,18.2609466 34.468686,17.7450629 C34.5025608,17.5220142 34.4180384,17.5053189 34.2407716,17.6008158 L34.2407716,17.6008158 Z" id="Shape"></path>
                            <path d="M13.9524411,8.92061381 C14.4026789,9.0017528 14.8539035,9.05885061 15.3123634,9.03380771 C15.6780789,9.02612789 16.0424788,9.04916735 16.4049055,8.94832795 C17.44976,8.65849816 17.9818892,7.97766527 18.0160928,6.87811514 C18.0381278,6.16823248 17.8815805,5.53648367 17.303408,5.07636217 C17.0284636,4.8573203 16.7068181,4.7187496 16.3999723,4.55513601 C16.1615337,4.42791809 15.9487478,4.27899633 16.0250481,3.95076743 C16.0858911,3.68798396 16.3019658,3.52670771 16.6344644,3.5263738 C17.030108,3.52570599 17.427725,3.48964422 17.8200798,3.58046646 C17.9809025,3.61786385 18.0739758,3.57378835 18.0950242,3.37578251 C18.1361343,2.98644894 18.1946751,2.59811709 18.2719621,2.21512772 C18.3160321,1.99408241 18.239074,1.91461295 18.0391145,1.90392798 C17.5168517,1.87721556 16.9985355,1.79373924 16.4713395,1.83013491 C15.4228673,1.90392798 14.4862147,2.32698599 14.2579714,3.61752995 C14.1027396,4.49603477 14.2744154,5.34715937 15.1094439,5.88942156 C15.3590644,6.05169953 15.6215114,6.19394319 15.8836294,6.33585294 C16.144103,6.47742878 16.3631377,6.64438143 16.2911128,6.98897169 C16.2207323,7.32621604 15.9362503,7.39032586 15.663937,7.45844253 C15.6070406,7.47280046 15.545211,7.46378502 15.4856836,7.46845969 C14.9926912,7.5065249 14.5200894,7.39065976 14.0524208,7.25943498 C13.8794295,7.21101871 13.800827,7.21970025 13.7781342,7.42738934 C13.7393263,7.77598647 13.6669725,8.12024283 13.6159959,8.46750433 C13.5604151,8.84715465 13.5706104,8.85216323 13.9524411,8.92061381 L13.9524411,8.92061381 Z" id="Shape"></path>
                            <path d="M14.9180352,12.7034269 C13.7932627,12.2666788 12.5543686,12.6546767 11.8495769,13.5628991 C11.1668203,14.4427396 10.8839827,15.4381112 10.9290394,16.5433378 C10.9290394,16.7553676 10.9102932,16.9687331 10.9319994,17.1777578 C11.0191528,18.0278807 11.3088968,18.7958629 11.9923112,19.327774 C12.7457772,19.9151134 13.5850811,19.8189487 14.4230695,19.5197695 C14.5575818,19.4720211 14.6125049,19.3661731 14.6263179,19.2175852 C14.6615082,18.8279178 14.7101825,18.4395859 14.7601724,18.0519219 C14.7739854,17.9447383 14.8591655,17.8181882 14.7706966,17.737717 C14.6588771,17.635542 14.5536352,17.7724431 14.4529977,17.8161847 C13.5762014,18.2005097 12.7937938,17.7500715 12.6500729,16.8017805 C12.6033718,16.4949215 12.6316556,16.200417 12.6714502,15.9069143 C12.7227556,15.5296013 12.8013581,15.1486153 13.0519653,14.8424242 C13.5521931,14.2307097 14.101753,14.1305381 14.8815294,14.5275515 C15.1018796,14.6404115 15.1804821,14.5903257 15.219619,14.3602649 C15.2630312,14.1031579 15.3261764,13.8493898 15.3830727,13.5952879 C15.5290958,12.9448404 15.531398,12.9408335 14.9180352,12.7034269 L14.9180352,12.7034269 Z" id="Shape"></path>
                            <path d="M20.1929551,0.936597484 C20.3567378,0.936597484 20.5205204,0.940597484 20.6843031,0.937597484 C20.5205204,0.941597484 20.3567378,0.936597484 20.1929551,0.936597484 C19.9844447,0.936597484 19.7759342,0.948597484 19.5674238,0.932597484 C19.7759342,0.949597484 19.9844447,0.936597484 20.1929551,0.936597484 L20.1929551,0.936597484 Z" id="Shape"></path>
                            <path d="M19.0372678,8.9259563 C19.6516172,9.22780668 20.2732021,9.07554587 20.8822894,8.8695263 C20.9618785,8.84281388 20.9875313,8.7559985 20.9996998,8.67218828 C21.0579118,8.27550879 21.120728,7.8791632 21.1756511,7.48181591 C21.2088681,7.24006847 21.0533074,7.28314226 20.9095865,7.30918687 C20.3360183,7.41570266 20.0900154,7.14991404 20.1903241,6.56457806 C20.3143122,5.84300873 20.397519,5.11409347 20.532689,4.39486147 C20.6826587,3.59515829 20.4767793,3.71302686 21.2562269,3.71469639 C21.4367825,3.71503029 21.5275536,3.66761574 21.5453132,3.46760647 C21.5729392,3.15841017 21.6242446,2.85088339 21.67555,2.54335662 C21.7709254,1.96870561 21.7732276,1.96302922 21.1990016,1.96903951 C20.9891757,1.97137685 20.8457836,1.96002407 20.9388569,1.68221487 C20.9924645,1.52194033 21.0105529,1.34931129 21.0454143,1.18235864 C21.0796179,1.01740943 21.0223926,0.930927958 20.8480858,0.933265295 C20.7934916,0.933933105 20.7388973,0.934600916 20.6839742,0.934600916 C20.5201916,0.935602632 20.3564089,0.93426701 20.1926262,0.93426701 C19.9841158,0.93426701 19.7756053,0.938273874 19.5670949,0.932931389 C19.3993656,0.928924526 19.3079368,1.00472103 19.2835996,1.1733432 C19.2470938,1.42143483 19.2059837,1.66885866 19.1675046,1.91695029 C18.9747805,3.16608999 18.7817274,4.41489579 18.5909765,5.66403549 C18.4834325,6.36857566 18.3390538,7.06910896 18.3758884,7.78967659 C18.4015412,8.28786328 18.5860433,8.70357537 19.0372678,8.9259563 L19.0372678,8.9259563 Z" id="Shape"></path>
                            <path d="M30.3458358,4.00686352 C30.5267202,4.01688068 30.5767101,3.92605844 30.6158469,3.7661178 C30.7322707,3.28930104 30.8434325,2.81014695 31.0430631,2.35670356 C31.0993018,2.22848393 31.2653866,2.05685661 31.1532382,1.95100863 C31.0190548,1.82579414 30.7941003,1.88022071 30.6151892,1.9363168 C30.5036986,1.97171076 30.4043765,2.04617164 30.3017657,2.10560678 C30.0353722,2.26020493 29.8988867,2.54101928 29.6417019,2.82917955 C29.6703145,2.57607934 29.6703145,2.39343314 29.7157,2.22247363 C29.776543,1.99408241 29.6713011,1.9616936 29.48943,1.96469875 C29.1325943,1.97004123 28.7744431,1.97872277 28.4179362,1.96102579 C28.2104124,1.95067472 28.1344409,2.04450211 28.1064861,2.22948564 C28.007164,2.88394002 27.9032377,3.53772658 27.8035868,4.19218096 C27.5786323,5.67972904 27.3625576,7.16861274 27.1251056,8.65348958 C27.0872843,8.89089624 27.132341,8.96836227 27.3632153,8.9636876 C27.7697121,8.95567387 28.1771954,8.95333653 28.5836922,8.96535712 C28.7820073,8.97136742 28.8658719,8.89957778 28.8948135,8.69956851 C28.9984109,7.97499402 29.1082571,7.25175516 29.2302719,6.52985191 C29.3539311,5.79826542 29.4552264,5.05833129 29.7860805,4.38183916 C29.90086,4.14843936 30.0748379,3.99183778 30.3458358,4.00686352 L30.3458358,4.00686352 Z" id="Shape"></path>
                            <path d="M41.9490809,8.96435541 C42.3355159,8.95300263 42.7232664,8.94799405 43.1097014,8.96602493 C43.3507711,8.9767099 43.4477909,8.87687222 43.4803501,8.64647757 C43.5730945,7.99068757 43.671101,7.33589929 43.7783162,6.68244663 C43.892109,5.98892534 43.9993241,5.29340061 44.2374338,4.62859517 C44.3630663,4.27732681 44.5360577,3.9868292 44.9672204,4.00252275 C45.1073237,4.00786523 45.1596157,3.90435459 45.1806641,3.79283023 C45.2921547,3.21784531 45.4582396,2.66256081 45.7111489,2.13432263 C45.7960002,1.95635111 45.716411,1.9052636 45.5447352,1.89624816 C45.225063,1.88022071 44.9619584,1.99441632 44.7425948,2.21980239 C44.5788122,2.38775675 44.4232515,2.56339094 44.2311851,2.77174784 C44.2140833,2.55137035 44.25914,2.39243143 44.294988,2.23115517 C44.3334671,2.05819223 44.2742685,1.96135969 44.082531,1.96469875 C43.7750274,1.97070904 43.4675238,1.96603437 43.1593624,1.96603437 C42.6962982,1.96603437 42.710769,1.9683717 42.6433484,2.44819361 C42.4858145,3.5704493 42.3157831,4.69136937 42.1454228,5.81228944 C42.0007152,6.76492124 41.8484434,7.71588352 41.6991315,8.66818141 C41.6678878,8.86652116 41.7264286,8.97069961 41.9490809,8.96435541 L41.9490809,8.96435541 Z" id="Shape"></path>
                            <path d="M24.8242552,12.6099334 C24.7081603,12.4860545 24.5223426,12.5361403 24.3723729,12.5775446 C24.2605534,12.60793 24.1615603,12.6863977 24.0566473,12.7421599 C23.770521,12.8924173 23.6692257,13.2126325 23.3952679,13.415313 C23.4278271,13.2403466 23.4620307,13.066048 23.4926167,12.8910817 C23.5255047,12.7040947 23.4643329,12.604257 23.2587824,12.6092656 C22.9312171,12.6176132 22.6033229,12.6172793 22.2760864,12.6092656 C22.1047395,12.6049248 22.0264658,12.671372 22.0044308,12.8473401 C21.9600319,13.1949355 21.8926113,13.5395257 21.8436081,13.8867872 C21.6903496,14.9789915 21.5433399,16.0715296 21.3904103,17.1633999 C21.2874706,17.8979915 21.1779533,18.6312476 21.0723825,19.3658392 C21.0523208,19.5044099 21.1049417,19.5731944 21.250307,19.5718588 C21.667328,19.5678519 22.0843489,19.5688536 22.5010409,19.570857 C22.6467351,19.5721927 22.7098802,19.5080829 22.7286265,19.3571577 C22.8026246,18.760135 22.8825427,18.164448 22.9696961,17.5690948 C23.0772402,16.8348371 23.1755755,16.0975742 23.3909925,15.3856881 C23.4968921,15.0340858 23.6337065,14.6768072 24.0569762,14.6220467 C24.2628556,14.5953343 24.3121877,14.4995035 24.3457336,14.3195285 C24.4319004,13.8547323 24.5631238,13.4026246 24.7315108,12.960534 C24.7755808,12.8463383 24.9327859,12.7268003 24.8242552,12.6099334 L24.8242552,12.6099334 Z" id="Shape"></path>
                        </g>
                    </g>
                </g>
            </g>
        </g>
    </g>
</svg>