<?xml version="1.0" encoding="UTF-8"?>
<svg width="32px" height="19px" viewBox="0 0 32 19" version="1.1" xmlns="http://www.w3.org/2000/svg" xmlns:xlink="http://www.w3.org/1999/xlink">
    <!-- Generator: sketchtool 40.3 (33839) - http://www.bohemiancoding.com/sketch -->
    <title>ACABFBF2-5B83-4AED-A1A3-333855A0A9E3</title>
    <desc>Created with sketchtool.</desc>
    <defs></defs>
    <g id="Symbols" stroke="none" stroke-width="1" fill="none" fill-rule="evenodd">
        <g id="Logo/MC">
            <g id="Group-8">
                <path d="M18.9261839,9.45626724 C18.9261839,14.652658 14.7136437,18.8647615 9.51747126,18.8647615 C4.32129885,18.8647615 0.109195402,14.652658 0.109195402,9.45626724 C0.109195402,4.26031322 4.32129885,0.0477729885 9.51747126,0.0477729885 C14.7136437,0.0477729885 18.9261839,4.26031322 18.9261839,9.45626724" id="Fill-1" fill="#D9222A"></path>
                <path d="M22.1487586,0.0477729885 C19.7178506,0.0477729885 17.5027126,0.970037356 15.8328966,2.48326724 C15.4928621,2.79163506 15.1753218,3.12468103 14.8828966,3.47891092 L16.7837701,3.47891092 C17.0436552,3.79492241 17.2830115,4.12731322 17.5009655,4.47542816 L14.1657011,4.47542816 C13.9658736,4.79537069 13.7843908,5.12776149 13.6236552,5.47172701 L18.0427931,5.47172701 C18.1937011,5.79450862 18.3269195,6.12668103 18.4411379,6.46780747 L13.2253103,6.46780747 C13.1165517,6.79233621 13.025046,7.12450862 12.9518851,7.46410632 L18.7143448,7.46410632 C18.8525862,8.10617529 18.9261839,8.77270402 18.9261839,9.45626724 C18.9261839,10.5010489 18.7556207,11.5063017 18.4411379,12.4449454 L13.2253103,12.4449454 C13.3393103,12.7862902 13.4725287,13.118681 13.6234368,13.4412443 L18.0427931,13.4412443 C17.8816207,13.7852098 17.7005747,14.1176006 17.5005287,14.4377615 L14.1657011,14.4377615 C14.3834368,14.7852213 14.6232299,15.1180489 14.8828966,15.4334052 L16.7833333,15.4334052 C16.4913448,15.7882902 16.1735862,16.121773 15.8331149,16.4299224 C17.502931,17.9429339 19.7178506,18.8647615 22.1487586,18.8647615 C27.344931,18.8647615 31.5574713,14.652658 31.5574713,9.45626724 C31.5574713,4.26053161 27.344931,0.0477729885 22.1487586,0.0477729885" id="Fill-2" fill="#EE9F2D"></path>
                <path d="M7.32067816,10.4864167 C7.21344828,10.4739684 7.16627586,10.4706925 7.09267816,10.4706925 C6.51372414,10.4706925 6.22064368,10.6692098 6.22064368,11.0612213 C6.22064368,11.3029799 6.36368966,11.456727 6.58688506,11.456727 C7.00291954,11.456727 7.30277011,11.0605661 7.32067816,10.4864167 L7.32067816,10.4864167 Z M8.06342529,12.2158534 L7.21716092,12.2158534 L7.2365977,11.8135776 C6.97845977,12.1315546 6.63405747,12.282681 6.16604598,12.282681 C5.61242529,12.282681 5.23286207,11.8502672 5.23286207,11.2223937 C5.23286207,10.2776351 5.89305747,9.72641667 7.02628736,9.72641667 C7.14203448,9.72641667 7.29054023,9.73689943 7.44254023,9.75633621 C7.4742069,9.6283592 7.48250575,9.5735431 7.48250575,9.50475 C7.48250575,9.24748563 7.30451724,9.15161207 6.82733333,9.15161207 C6.32765517,9.14593391 5.91555172,9.27063506 5.74629885,9.32632471 C5.757,9.26189943 5.88781609,8.45319828 5.88781609,8.45319828 C6.39688506,8.30403736 6.73255172,8.24791092 7.11036782,8.24791092 C7.98742529,8.24791092 8.45194253,8.64166954 8.45106897,9.3859454 C8.45281609,9.58533621 8.41983908,9.83146264 8.36829885,10.1548994 C8.27963218,10.7172557 8.08941379,11.9221178 8.06342529,12.2158534 L8.06342529,12.2158534 Z" id="Fill-4" fill="#000000"></path>
                <polyline id="Fill-5" fill="#000000" points="4.80547126 12.2158534 3.78405747 12.2158534 4.36912644 8.54710632 3.06271264 12.2158534 2.36670115 12.2158534 2.28065517 8.56807184 1.66566667 12.2158534 0.709551724 12.2158534 1.5082069 7.4433592 2.97688506 7.4433592 3.06598851 10.1147155 3.96182759 7.4433592 5.5953908 7.4433592 4.80547126 12.2158534"></polyline>
                <path d="M23.4110575,10.4864167 C23.3042644,10.4739684 23.2568736,10.4706925 23.1834943,10.4706925 C22.6047586,10.4706925 22.3116782,10.6692098 22.3116782,11.0612213 C22.3116782,11.3029799 22.4545057,11.456727 22.6777011,11.456727 C23.0937356,11.456727 23.3938046,11.0605661 23.4110575,10.4864167 L23.4110575,10.4864167 Z M24.1544598,12.2158534 L23.3081954,12.2158534 L23.3274138,11.8135776 C23.0692759,12.1315546 22.7246552,12.282681 22.2570805,12.282681 C21.7032414,12.282681 21.3241149,11.8502672 21.3241149,11.2223937 C21.3241149,10.2776351 21.9838736,9.72641667 23.1173218,9.72641667 C23.233069,9.72641667 23.3813563,9.73689943 23.5331379,9.75633621 C23.5648046,9.6283592 23.5731034,9.5735431 23.5731034,9.50475 C23.5731034,9.24748563 23.3953333,9.15161207 22.9181494,9.15161207 C22.4184713,9.14593391 22.0068046,9.27063506 21.8368966,9.32632471 C21.8475977,9.26189943 21.9788506,8.45319828 21.9788506,8.45319828 C22.4879195,8.30403736 22.8233678,8.24791092 23.2007471,8.24791092 C24.0782414,8.24791092 24.5427586,8.64166954 24.5418851,9.3859454 C24.5436322,9.58533621 24.5106552,9.83146264 24.4591149,10.1548994 C24.3708851,10.7172557 24.1802299,11.9221178 24.1544598,12.2158534 L24.1544598,12.2158534 Z" id="Fill-6" fill="#000000"></path>
                <path d="M12.6028966,12.1568879 C12.3233563,12.2448994 12.1054023,12.282681 11.8691034,12.282681 C11.346931,12.282681 11.061931,11.9826121 11.061931,11.4300833 C11.0545057,11.2586466 11.1370575,10.8074511 11.2019195,10.3955661 C11.2608851,10.0330374 11.6448161,7.7471408 11.6448161,7.7471408 L12.6601149,7.7471408 L12.5415287,8.33461207 L13.1547701,8.33461207 L13.0163103,9.2673592 L12.4008851,9.2673592 C12.282954,10.0055201 12.1150115,10.9249454 12.113046,11.0468075 C12.113046,11.2468534 12.2198391,11.3342098 12.4626897,11.3342098 C12.579092,11.3342098 12.6692874,11.3224167 12.7380805,11.2975201 L12.6028966,12.1568879" id="Fill-7" fill="#000000"></path>
                <path d="M15.7158391,12.1254397 C15.367069,12.2320144 15.0305287,12.2835546 14.6738966,12.282681 C13.5373908,12.2815891 12.9448966,11.6880029 12.9448966,10.5512787 C12.9448966,9.2245546 13.6985632,8.24791092 14.7217241,8.24791092 C15.5588161,8.24791092 16.0934368,8.79476149 16.0934368,9.65238218 C16.0934368,9.9369454 16.0567471,10.2147385 15.9682989,10.6069684 L13.9464368,10.6069684 C13.8780805,11.1699799 14.2384253,11.4045316 14.828954,11.4045316 C15.1923563,11.4045316 15.5201609,11.3296236 15.8846552,11.1601523 L15.7158391,12.1254397 L15.7158391,12.1254397 Z M15.1451839,9.82447414 C15.1508621,9.74366954 15.2528506,9.13173851 14.6728046,9.13173851 C14.3493678,9.13173851 14.118092,9.37830172 14.0239655,9.82447414 L15.1451839,9.82447414 L15.1451839,9.82447414 Z" id="Fill-8" fill="#000000"></path>
                <path d="M8.67601149,9.56153161 C8.67601149,10.0524741 8.91405747,10.3909799 9.45391954,10.6451868 C9.86755172,10.8395546 9.93154023,10.8972098 9.93154023,11.0734511 C9.93154023,11.3154282 9.74918391,11.4246236 9.34494253,11.4246236 C9.04028736,11.4246236 8.75681609,11.3770144 8.42988506,11.2715316 C8.42988506,11.2715316 8.29557471,12.1269684 8.28945977,12.1678075 C8.5216092,12.2184741 8.72864368,12.2654282 9.35236782,12.282681 C10.4301264,12.282681 10.9278391,11.8723247 10.9278391,10.9854397 C10.9278391,10.4521293 10.7194943,10.1391753 10.2078046,9.90396839 C9.77954023,9.70741667 9.7304023,9.66352011 9.7304023,9.48225575 C9.7304023,9.27238218 9.90009195,9.16537069 10.2302989,9.16537069 C10.4307816,9.16537069 10.7046437,9.18677299 10.964092,9.22368103 L11.1095402,8.32347414 C10.845069,8.2815431 10.4441034,8.24791092 10.2106437,8.24791092 C9.06802299,8.24791092 8.67251724,8.84477299 8.67601149,9.56153161" id="Fill-9" fill="#000000"></path>
                <path d="M20.6833563,8.34989943 C20.967046,8.34989943 21.2315172,8.42437069 21.5960115,8.60781897 L21.7630805,7.57199138 C21.6134828,7.51324425 21.0867241,7.16840517 20.6405517,7.16840517 C19.9569885,7.16840517 19.3791264,7.50756609 18.9727011,8.06730172 C18.3799885,7.87096839 18.1362644,8.26778448 17.8375057,8.66307184 L17.5721609,8.72487644 C17.5922529,8.59471552 17.6103793,8.46542816 17.6042644,8.33461207 L16.6662759,8.33461207 C16.5380805,9.53576149 16.310954,10.7524167 16.1331839,11.9550948 L16.0868851,12.2158534 L17.1087356,12.2158534 C17.2792989,11.1077385 17.3727701,10.3981868 17.4295517,9.9179454 L17.8143563,9.70392241 C17.8717931,9.49011782 18.0517471,9.41783046 18.4127471,9.42656609 C18.3655747,9.67989943 18.3402414,9.94633621 18.3402414,10.2223822 C18.3402414,11.4921063 19.0253333,12.282681 20.124931,12.282681 C20.4081839,12.282681 20.6512529,12.2453362 21.0275402,12.1433477 L21.2072759,11.0553247 C20.8687701,11.2219569 20.590977,11.3003592 20.3393908,11.3003592 C19.7455862,11.3003592 19.3863333,10.8620489 19.3863333,10.1376466 C19.3863333,9.08675 19.9207356,8.34989943 20.6833563,8.34989943" id="Fill-10" fill="#000000"></path>
                <path d="M29.330977,7.4433592 L29.1045057,8.82227874 C28.8251839,8.45472701 28.5251149,8.18872701 28.128954,8.18872701 C27.6135517,8.18872701 27.1444483,8.57942816 26.8373908,9.15445115 C26.4097816,9.06578448 25.9675402,8.91531322 25.9675402,8.91531322 L25.9673218,8.91880747 C26.0018276,8.59733621 26.0155862,8.40122126 26.0125287,8.33461207 L25.0743218,8.33461207 C24.9465632,9.53576149 24.7194368,10.7524167 24.5418851,11.9550948 L24.4951494,12.2158534 L25.5167816,12.2158534 C25.6548046,11.319796 25.7605057,10.5757385 25.8382529,9.98564655 C26.1872414,9.67029023 26.361954,9.39511782 26.7146552,9.41346264 C26.5585057,9.79106034 26.467,10.2260948 26.467,10.6722672 C26.467,11.6425776 26.9579425,12.282681 27.7004713,12.282681 C28.0747931,12.282681 28.361977,12.1536121 28.6421724,11.8544167 L28.5943448,12.2151983 L29.5605057,12.2151983 L30.3384138,7.4433592 L29.330977,7.4433592 L29.330977,7.4433592 Z M28.0536092,11.3189224 C27.705931,11.3189224 27.5303448,11.061658 27.5303448,10.5538994 C27.5303448,9.79106034 27.859023,9.25010632 28.3224483,9.25010632 C28.6734023,9.25010632 28.8634023,9.51763506 28.8634023,10.0105431 C28.8634023,10.7799339 28.5294828,11.3189224 28.0536092,11.3189224 L28.0536092,11.3189224 Z" id="Fill-11" fill="#000000"></path>
                <polyline id="Fill-12" fill="#FFFFFF" points="5.09942529 11.9323822 4.0777931 11.9323822 4.66329885 8.26407184 3.35688506 11.9323822 2.66065517 11.9323822 2.5746092 8.28503736 1.95962069 11.9323822 1.00350575 11.9323822 1.80216092 7.1605431 3.27083908 7.1605431 3.31211494 10.1147155 4.30295402 7.1605431 5.88934483 7.1605431 5.09942529 11.9323822"></polyline>
                <path d="M7.61441379,10.2036006 C7.5074023,10.1911523 7.46001149,10.1878764 7.38663218,10.1878764 C6.80767816,10.1878764 6.51481609,10.3863937 6.51481609,10.7784052 C6.51481609,11.019727 6.65786207,11.1739109 6.88062069,11.1739109 C7.29709195,11.1739109 7.59694253,10.77775 7.61441379,10.2036006 L7.61441379,10.2036006 Z M8.3575977,11.9323822 L7.51133333,11.9323822 L7.53055172,11.5307615 C7.27263218,11.8480833 6.9277931,11.9998649 6.46021839,11.9998649 C5.90637931,11.9998649 5.52703448,11.5674511 5.52703448,10.9395776 C5.52703448,9.99438218 6.18701149,9.44360057 7.32045977,9.44360057 C7.4362069,9.44360057 7.58471264,9.45408333 7.73649425,9.47352011 C7.76816092,9.3455431 7.77645977,9.29072701 7.77645977,9.22149713 C7.77645977,8.96423276 7.59868966,8.86879598 7.12150575,8.86879598 C6.6216092,8.86311782 6.20972414,8.98781897 6.04025287,9.04285345 C6.05095402,8.97864655 6.18177011,8.17081897 6.18177011,8.17081897 C6.69062069,8.02100287 7.02672414,7.96487644 7.40410345,7.96487644 C8.28137931,7.96487644 8.74611494,8.35885345 8.74524138,9.10247414 C8.74677011,9.30273851 8.71357471,9.54864655 8.66225287,9.87164655 C8.5738046,10.4337845 8.38336782,11.6393017 8.3575977,11.9323822 L8.3575977,11.9323822 Z" id="Fill-13" fill="#FFFFFF"></path>
                <path d="M22.0572529,7.2889569 L21.8899655,8.32500287 C21.5256897,8.14177299 21.261,8.06708333 20.9775287,8.06708333 C20.214908,8.06708333 19.6802874,8.80393391 19.6802874,9.85483046 C19.6802874,10.5792328 20.0397586,11.0173247 20.6333448,11.0173247 C20.884931,11.0173247 21.1625057,10.9391408 21.5010115,10.7722902 L21.3217126,11.8598764 C20.9452069,11.9625201 20.7023563,11.9998649 20.4188851,11.9998649 C19.3195057,11.9998649 18.6341954,11.2092902 18.6341954,9.93956609 C18.6341954,8.23349713 19.5807011,7.04108333 20.9345057,7.04108333 C21.3804598,7.04108333 21.9074368,7.23020977 22.0572529,7.2889569" id="Fill-14" fill="#FFFFFF"></path>
                <path d="M23.7052299,10.2036006 C23.5982184,10.1911523 23.551046,10.1878764 23.4774483,10.1878764 C22.8987126,10.1878764 22.6056322,10.3863937 22.6056322,10.7784052 C22.6056322,11.019727 22.7486782,11.1739109 22.9716552,11.1739109 C23.3876897,11.1739109 23.6877586,10.77775 23.7052299,10.2036006 L23.7052299,10.2036006 Z M24.4484138,11.9323822 L23.601931,11.9323822 L23.6213678,11.5307615 C23.3632299,11.8480833 23.0186092,11.9998649 22.5510345,11.9998649 C21.9974138,11.9998649 21.6178506,11.5674511 21.6178506,10.9395776 C21.6178506,9.99438218 22.278046,9.44360057 23.4110575,9.44360057 C23.527023,9.44360057 23.6753103,9.45408333 23.8273103,9.47352011 C23.8587586,9.3455431 23.8672759,9.29072701 23.8672759,9.22149713 C23.8672759,8.96423276 23.6895057,8.86879598 23.2123218,8.86879598 C22.7126437,8.86311782 22.3005402,8.98781897 22.131069,9.04285345 C22.1417701,8.97864655 22.2728046,8.17081897 22.2728046,8.17081897 C22.7816552,8.02100287 23.1175402,7.96487644 23.4949195,7.96487644 C24.3724138,7.96487644 24.836931,8.35885345 24.8358391,9.10247414 C24.8375862,9.30273851 24.8046092,9.54864655 24.753069,9.87164655 C24.6648391,10.4337845 24.4739655,11.6393017 24.4484138,11.9323822 L24.4484138,11.9323822 Z" id="Fill-15" fill="#FFFFFF"></path>
                <path d="M12.8968506,11.8736351 C12.617092,11.9616466 12.3991379,11.9998649 12.1630575,11.9998649 C11.6408851,11.9998649 11.3558851,11.699796 11.3558851,11.1472672 C11.3486782,10.9753937 11.4312299,10.5246351 11.496092,10.11275 C11.5548391,9.74978448 11.9387701,7.46410632 11.9387701,7.46410632 L12.9538506,7.46410632 L12.8354828,8.05179598 L13.3565632,8.05179598 L13.2178851,8.98410632 L12.6950575,8.98410632 C12.5771264,9.72270402 12.4087471,10.6414741 12.407,10.7635546 C12.407,10.9642557 12.5140115,11.0509569 12.7566437,11.0509569 C12.873046,11.0509569 12.963023,11.0396006 13.0320345,11.014704 L12.8968506,11.8736351" id="Fill-16" fill="#FFFFFF"></path>
                <path d="M16.0097931,11.8426236 C15.6612414,11.9491983 15.3242644,12.0005201 14.9678506,11.9998649 C13.8313448,11.998773 13.2388506,11.4051868 13.2388506,10.2684626 C13.2388506,8.94130172 13.9925172,7.96487644 15.0156782,7.96487644 C15.8527701,7.96487644 16.3873908,8.51150862 16.3873908,9.36956609 C16.3873908,9.6543477 16.3507011,9.9321408 16.2624713,10.3241523 L14.2406092,10.3241523 C14.1722529,10.8871638 14.5325977,11.1219339 15.1231264,11.1219339 C15.4863103,11.1219339 15.8143333,11.0468075 16.1786092,10.8768994 L16.0097931,11.8426236 L16.0097931,11.8426236 Z M15.4389195,9.54100287 C15.4450345,9.46041667 15.5468046,8.84826724 14.9665402,8.84826724 C14.6433218,8.84826724 14.412046,9.09548563 14.3179195,9.54100287 L15.4389195,9.54100287 L15.4389195,9.54100287 Z" id="Fill-17" fill="#FFFFFF"></path>
                <path d="M8.96996552,9.27871552 C8.96996552,9.76965805 9.20801149,10.107727 9.74787356,10.3623707 C10.1615057,10.5567385 10.2254943,10.6146121 10.2254943,10.7906351 C10.2254943,11.0326121 10.0429195,11.1418075 9.63911494,11.1418075 C9.33424138,11.1418075 9.05077011,11.0941983 8.72362069,10.9887155 C8.72362069,10.9887155 8.58974713,11.8441523 8.58363218,11.8849914 C8.81534483,11.935658 9.0225977,11.9819569 9.64632184,11.9998649 C10.7242989,11.9998649 11.2217931,11.5895086 11.2217931,10.702842 C11.2217931,10.1693132 11.0136667,9.8563592 10.5017586,9.6211523 C10.0737126,9.42416379 10.0241379,9.38092241 10.0241379,9.19943966 C10.0241379,8.98978448 10.1942644,8.88189943 10.5242529,8.88189943 C10.7245172,8.88189943 10.9983793,8.9039569 11.2582644,8.94086494 L11.4034943,8.04043966 C11.1392414,7.99850862 10.7382759,7.96487644 10.5048161,7.96487644 C9.36197701,7.96487644 8.96668966,8.56130172 8.96996552,9.27871552" id="Fill-18" fill="#FFFFFF"></path>
                <path d="M25.3684943,8.05179598 C25.2405172,9.2529454 25.0133908,10.4696006 24.8358391,11.6716236 L24.7891034,11.9323822 L25.8107356,11.9323822 C26.1761034,9.5593477 26.2645517,9.09592241 26.8373908,9.15401437 C26.9286782,8.66831322 27.0985862,8.24288793 27.2252529,8.02820977 C26.7974253,7.93910632 26.5585057,8.18086494 26.2457701,8.6401408 C26.2704483,8.44162356 26.3156552,8.24878448 26.3067011,8.05179598 L25.3684943,8.05179598" id="Fill-20" fill="#FFFFFF"></path>
                <path d="M16.9602299,8.05179598 C16.8320345,9.2529454 16.604908,10.4696006 16.4273563,11.6716236 L16.3808391,11.9323822 L17.402908,11.9323822 C17.7678391,9.5593477 17.856069,9.09592241 18.4286897,9.15401437 C18.5204138,8.66831322 18.6903218,8.24288793 18.8165517,8.02820977 C18.3891609,7.93910632 18.150023,8.18086494 17.8375057,8.6401408 C17.8621839,8.44162356 17.906954,8.24878448 17.8984368,8.05179598 L16.9602299,8.05179598" id="Fill-21" fill="#FFFFFF"></path>
                <path d="M30.3034713,14.700704 C30.3034713,14.5329799 30.4393103,14.396704 30.6072529,14.396704 C30.7751954,14.396704 30.9110345,14.5329799 30.9110345,14.700704 C30.9110345,14.8684282 30.7751954,15.004704 30.6072529,15.004704 C30.4393103,15.004704 30.3034713,14.8684282 30.3034713,14.700704 L30.3034713,14.700704 Z M30.6072529,14.9317615 C30.7347931,14.9317615 30.8383103,14.8282443 30.8383103,14.700704 C30.8383103,14.5729454 30.7347931,14.4698649 30.6072529,14.4698649 C30.4794943,14.4698649 30.3764138,14.5729454 30.3764138,14.700704 C30.3764138,14.8282443 30.4794943,14.9317615 30.6072529,14.9317615 L30.6072529,14.9317615 Z M30.5661954,14.8343592 L30.503954,14.8343592 L30.503954,14.5672672 L30.6166437,14.5672672 C30.6402299,14.5672672 30.6642529,14.5672672 30.685,14.5805891 C30.7066207,14.5952213 30.7188506,14.6209914 30.7188506,14.6476351 C30.7188506,14.6775546 30.7011609,14.7055086 30.6725517,14.7164282 L30.7216897,14.8343592 L30.6526782,14.8343592 L30.6118391,14.728658 L30.5661954,14.728658 L30.5661954,14.8343592 L30.5661954,14.8343592 Z M30.5661954,14.682796 L30.6007011,14.682796 C30.6135862,14.682796 30.6271264,14.6838879 30.6387011,14.6775546 C30.6489655,14.6710029 30.6542069,14.658773 30.6542069,14.6469799 C30.6542069,14.6367155 30.6478736,14.6249224 30.6391379,14.6198994 C30.6282184,14.6131293 30.6109655,14.614658 30.5993908,14.614658 L30.5661954,14.614658 L30.5661954,14.682796 L30.5661954,14.682796 Z" id="Fill-3" fill="#000000"></path>
                <path d="M29.8544598,11.9323822 L28.8880805,11.9323822 L28.9361264,11.5711638 C28.655931,11.870796 28.3687471,11.9998649 27.9944253,11.9998649 C27.2518966,11.9998649 26.7611724,11.3597615 26.7611724,10.3894511 C26.7611724,9.0985431 27.5222644,8.01030172 28.4231264,8.01030172 C28.8192874,8.01030172 29.1191379,8.17212931 29.3982414,8.53946264 L29.624931,7.1605431 L30.6323678,7.1605431 L29.8544598,11.9323822 L29.8544598,11.9323822 Z M28.3477816,11.0356695 C28.8234368,11.0356695 29.1575747,10.496681 29.1575747,9.72772701 C29.1575747,9.23481897 28.9673563,8.96729023 28.6164023,8.96729023 C28.1531954,8.96729023 27.8240805,9.50802586 27.8240805,10.2710833 C27.8240805,10.778842 28.0001034,11.0356695 28.3477816,11.0356695 L28.3477816,11.0356695 Z" id="Fill-19" fill="#FFFFFF"></path>
                <path d="M30.3030345,11.6286006 C30.3030345,11.4602213 30.439092,11.3246006 30.6068161,11.3246006 C30.7747586,11.3246006 30.9105977,11.4602213 30.9105977,11.6286006 C30.9105977,11.7961063 30.7747586,11.9323822 30.6068161,11.9323822 C30.439092,11.9323822 30.3030345,11.7961063 30.3030345,11.6286006 L30.3030345,11.6286006 Z M30.6068161,11.8594397 C30.7345747,11.8594397 30.8376552,11.7559224 30.8376552,11.6286006 C30.8376552,11.5010603 30.7345747,11.3975431 30.6068161,11.3975431 C30.4792759,11.3975431 30.3757586,11.5010603 30.3757586,11.6286006 C30.3757586,11.7559224 30.4792759,11.8594397 30.6068161,11.8594397 L30.6068161,11.8594397 Z M30.5657586,11.7613822 L30.5035172,11.7613822 L30.5035172,11.4949454 L30.6164253,11.4949454 C30.6397931,11.4949454 30.6640345,11.4953822 30.6843448,11.5082672 C30.7061839,11.5231178 30.7186322,11.5484511 30.7186322,11.5750948 C30.7186322,11.6052328 30.7009425,11.6334052 30.6721149,11.6441063 L30.7214713,11.7613822 L30.6522414,11.7613822 L30.6114023,11.6561178 L30.5657586,11.6561178 L30.5657586,11.7613822 L30.5657586,11.7613822 Z M30.5657586,11.6104741 L30.600046,11.6104741 C30.612931,11.6104741 30.626908,11.6113477 30.6382644,11.6052328 C30.6485287,11.598681 30.6537701,11.5862328 30.6537701,11.5744397 C30.6537701,11.5646121 30.6476552,11.552819 30.6387011,11.5469224 C30.628,11.5408075 30.6103103,11.5425546 30.5987356,11.5425546 L30.5657586,11.5425546 L30.5657586,11.6104741 L30.5657586,11.6104741 Z" id="Fill-22" fill="#FFFFFF"></path>
            </g>
        </g>
    </g>
</svg>