<?xml version="1.0" encoding="UTF-8"?>
<svg width="32px" height="24px" viewBox="0 0 32 24" version="1.1" xmlns="http://www.w3.org/2000/svg" xmlns:xlink="http://www.w3.org/1999/xlink">
    <!-- Generator: sketchtool 41.2 (35396) - http://www.bohemiancoding.com/sketch -->
    <title>4D71F964-FF3D-4127-BC77-96511F737889</title>
    <desc>Created with sketchtool.</desc>
    <defs></defs>
    <g id="Symbols" stroke="none" stroke-width="1" fill="none" fill-rule="evenodd">
        <g id="Logo/Maestro">
            <g id="Maestro" transform="translate(-0.300000, 1.000000)">
                <g id="g2903" transform="translate(10.027114, 10.415779) scale(1, -1) translate(-10.027114, -10.415779) translate(0.027114, 0.415779)" fill="#009CDC">
                    <path d="M16.1037163,2.72207705 C18.0026129,4.46692843 19.1956298,6.98893282 19.1956298,9.79403321 C19.1956298,12.5984531 18.0026129,15.119777 16.1037163,16.8653089 C14.4329557,18.4005603 12.2180238,19.3349133 9.78703359,19.3349133 C4.5922431,19.3349133 0.379108321,15.0632939 0.379108321,9.79403321 C0.379108321,4.52409205 4.5922431,0.251792127 9.78703359,0.251792127 C12.2180238,0.251792127 14.4329557,1.18682559 16.1037163,2.72207705" id="path2905"></path>
                </g>
                <g id="g2907" transform="translate(17.719751, 10.278739) scale(1, -1) translate(-17.719751, -10.278739) translate(16.130830, 2.863777)" fill="#009CDC">
                    <path d="M0,0 C1.89889655,1.74485139 3.09191353,4.26685577 3.09191353,7.07195617 C3.09191353,9.87637604 1.89889655,12.3976999 0,14.1432318" id="path2909"></path>
                </g>
                <g id="g2911" transform="translate(18.130830, 10.693702) scale(1, -1) translate(-18.130830, -10.693702) translate(15.130830, 2.693702)" fill="#009CDC">
                    <path d="M0.232691254,1.83505102 C1.95621843,3.41875961 2.95786198,5.66143979 2.95786198,8.07195617 C2.95786198,10.4816546 1.95634128,12.7237416 0.232529037,14.3083299 L0.981435093,15.1230358 C0.981435093,15.1230358 1.76730875,15.124197 2.5984627,15.124197 C4.27331898,13.1992776 5.22596508,10.711973 5.22596508,8.07195617 C5.22596508,5.43449708 4.27556814,2.9494258 2.60456265,1.02584341 C1.76730875,1.02584341 1.862355,0.982982503 1.01563698,0.982982503 C0.75465507,1.26700534 0.232691254,1.83505102 0.232691254,1.83505102 Z" id="path2913"></path>
                </g>
                <g id="g2915" transform="translate(22.551673, 10.815924) scale(1, -1) translate(-22.551673, -10.815924) translate(13.051673, 0.815924)" fill="#ED2233">
                    <path d="M3.07916476,17.2654542 C2.73830276,16.9530958 2.42092535,16.6148778 2.12837451,16.2548831 L4.02794204,16.2548831 C4.28761447,15.935039 4.52782824,15.598182 4.74522841,15.245673 L1.41108814,15.245673 C1.21180465,14.9210653 1.02996686,14.5835278 0.868929693,14.2351019 L5.28671587,14.2351019 C5.4383592,13.9077722 5.57188584,13.5709151 5.68595383,13.2238503 L0.470362714,13.2238503 C0.362333617,12.8951595 0.271079225,12.5583025 0.197270525,12.2139597 L5.95904602,12.2139597 C6.09794058,11.5627028 6.17107829,10.8869471 6.17107829,10.1941785 C6.17107829,9.13461005 6.00064729,8.1151922 5.68595383,7.16314575 L0.470362714,7.16314575 C0.585101693,6.81676144 0.717957352,6.47922389 0.868929693,6.15257464 L5.28671587,6.15257464 C5.12634969,5.80346826 4.94518288,5.46661123 4.74522841,5.14132302 L1.41108814,5.14132302 C1.62848831,4.78881404 1.86870208,4.45195701 2.12837451,4.13211296 L4.02794204,4.13211296 C3.73606218,3.77211827 3.41801379,3.43390019 3.07916476,3.12222237 C4.74791236,1.58697092 6.96351533,0.651937453 9.39383451,0.651937453 C14.589967,0.651937453 18.8017598,4.92423738 18.8017598,10.1941785 C18.8017598,15.4634392 14.589967,19.7350586 9.39383451,19.7350586 C6.96351533,19.7350586 4.74791236,18.8007056 3.07916476,17.2654542 Z" id="path2917"></path>
                </g>
                <g id="g2919" transform="translate(31.252008, 15.544238) scale(1, -1) translate(-31.252008, -15.544238) translate(30.192728, 14.484957)" fill="#ED2233">
                    <path d="M0.67098818,0.680519262 L0.705208577,0.680519262 C0.717286364,0.680519262 0.732048104,0.679838742 0.743454903,0.685963416 C0.753519726,0.692768608 0.758887631,0.705017955 0.758887631,0.716586783 C0.758887631,0.727475091 0.752848737,0.739043918 0.743454903,0.744488072 C0.732719092,0.751293265 0.715273399,0.749251707 0.703195612,0.749251707 L0.67098818,0.749251707 L0.67098818,0.680519262 Z M0.67098818,0.527402428 L0.608586279,0.527402428 L0.608586279,0.798249094 L0.720641305,0.798249094 C0.744125891,0.798249094 0.768952454,0.797568575 0.789082099,0.783958189 C0.811224709,0.769667285 0.823302496,0.743127034 0.823302496,0.716586783 C0.823302496,0.685963416 0.805856804,0.657381607 0.777004312,0.646493299 L0.826657437,0.527402428 L0.757545655,0.527402428 L0.716615376,0.634243952 L0.67098818,0.634243952 L0.67098818,0.527402428 Z M0.711918459,0.428046616 C0.839406213,0.428046616 0.94340938,0.532846582 0.94340938,0.662145242 C0.94340938,0.791443901 0.839406213,0.896243868 0.711918459,0.896243868 C0.585101693,0.896243868 0.480427537,0.791443901 0.480427537,0.662145242 C0.480427537,0.532846582 0.585101693,0.428046616 0.711918459,0.428046616 Z M0.407960813,0.662145242 C0.407960813,0.832955576 0.543500425,0.970420467 0.711918459,0.970420467 C0.880336492,0.970420467 1.01520512,0.832955576 1.01520512,0.662145242 C1.01520512,0.492695945 0.880336492,0.353870016 0.711918459,0.353870016 C0.543500425,0.353870016 0.407960813,0.492695945 0.407960813,0.662145242 L0.407960813,0.662145242 Z" id="path2921"></path>
                </g>
                <g id="g2923" transform="translate(6.155968, 10.628938) scale(1, -1) translate(-6.155968, -10.628938) translate(2.978127, 7.980738)" fill="#003873">
                    <polyline id="path2925" points="5.36790544 0 4.18562426 0 4.88076802 3.71903777 3.27844825 0 2.28941167 0 2.0948251 3.69862219 1.31983375 0 0.244239697 0 1.1520867 4.83781143 3.01139495 4.83781143 3.03219558 1.84352668 4.32049289 4.83781143 6.29051418 4.83781143 5.36790544 0"></polyline>
                </g>
                <g id="g2927" transform="translate(21.004915, 10.730820) scale(1, -1) translate(-21.004915, -10.730820) translate(19.415995, 7.552979)" fill="#003873">
                    <path d="M2.01296454,0.680519262 C1.69223219,0.591371238 1.4419536,0.55258164 1.17154536,0.55258164 C0.572352917,0.55258164 0.245581674,0.85745427 0.245581674,1.4168411 C0.245581674,1.52708522 0.256988473,1.64549557 0.280473059,1.76935008 L0.350926818,2.15452398 L0.405947849,2.4662018 L0.948777286,5.46933331 L2.11361277,5.46933331 L1.94452374,4.56628425 L2.54170322,4.56628425 L2.38133705,3.60947416 L1.78147362,3.60947416 L1.47281905,1.9680617 C1.45939929,1.89660718 1.45268941,1.84284616 1.45268941,1.80609812 C1.45268941,1.60262286 1.57346728,1.51415536 1.85192738,1.51415536 C1.98545402,1.51415536 2.0887862,1.5264047 2.16796281,1.55158392 L2.01296454,0.680519262" id="path2929"></path>
                </g>
                <g id="g2931" transform="translate(18.227919, 11.340081) scale(1, -1) translate(-18.227919, -11.340081) translate(16.109358, 8.691880)" fill="#003873">
                    <path d="M0.67098818,3.40259631 C0.67098818,2.90581725 0.946764321,2.56351606 1.57279629,2.3069603 C2.05255284,2.10892919 2.12703253,2.05108505 2.12703253,1.87142797 C2.12703253,1.62644104 1.91567125,1.51619692 1.4473215,1.51619692 C1.09303974,1.51619692 0.764926525,1.56587482 0.385818203,1.67271635 L0.222097087,0.76490365 L0.275776142,0.756737419 L0.492505324,0.715906263 C0.561617106,0.702976397 0.664949286,0.692088089 0.801830875,0.6818803 C1.08364591,0.659423165 1.30104608,0.648534856 1.45470237,0.648534856 C2.70475335,0.648534856 3.28247417,1.06501264 3.28247417,1.96125651 C3.28247417,2.50090829 3.04158942,2.81803026 2.44709389,3.056212 C1.95056264,3.25628467 1.89352864,3.2998379 1.89352864,3.4835781 C1.89352864,3.69521959 2.09012818,3.80410267 2.47326243,3.80410267 C2.70542434,3.80410267 3.02280175,3.78232606 3.32407544,3.74557802 L3.49316446,4.65611279 C3.18652286,4.6989855 2.72085707,4.73369198 2.45044883,4.73369198 C1.12591817,4.73369198 0.666962251,4.12871036 0.67098818,3.40259631" id="path2933"></path>
                </g>
                <g id="g2935" transform="translate(10.779279, 10.917479) scale(1, -1) translate(-10.779279, -10.917479) translate(8.660719, 8.269278)" fill="#003873">
                    <path d="M2.68395272,2.04155779 C2.56116188,2.05516817 2.50748283,2.05857077 2.42226733,2.05857077 C1.75866002,2.05857077 1.42249494,1.85645655 1.42249494,1.45971382 C1.42249494,1.21472688 1.58621606,1.05820745 1.84253354,1.05820745 C2.32027712,1.05820745 2.66382307,1.46039434 2.68395272,2.04155779 Z M3.47437679,0.288540167 L2.50077295,0.288540167 L2.52425753,0.696171205 C2.22700977,0.374285594 1.83246872,0.221849279 1.29500719,0.221849279 C0.661594345,0.221849279 0.225452028,0.659423165 0.225452028,1.29570867 C0.225452028,2.25387979 0.982326695,2.81258611 2.2820308,2.81258611 C2.41622843,2.81258611 2.58464647,2.8016978 2.75977438,2.78196274 C2.79600774,2.9112614 2.80540158,2.9677445 2.80540158,3.03783798 C2.80540158,3.29847686 2.60142117,3.3951106 2.05456581,3.3951106 C1.72041369,3.3951106 1.34264735,3.35359892 1.08163295,3.285547 L0.919253806,3.24471584 L0.81457965,3.21885611 L0.976287801,4.10353115 C1.56071851,4.25460642 1.94586572,4.31245056 2.3786531,4.31245056 C3.38446438,4.31245056 3.91722899,3.91298575 3.91722899,3.15828989 C3.91722899,2.9643419 3.89844132,2.8159887 3.82127768,2.37841482 C3.72130044,1.69381244 3.55489538,0.985391891 3.47437679,0.288540167 L3.47437679,0.288540167 Z" id="path2937"></path>
                </g>
                <g id="g2939" transform="translate(14.850164, 10.924964) scale(1, -1) translate(-14.850164, -10.924964) translate(12.731604, 8.276763)" fill="#003873">
                    <path d="M2.68395272,2.72207705 C2.6906626,2.80441988 2.69334655,2.8724718 2.69334655,2.92351075 C2.69334655,3.24199376 2.48869516,3.43117812 2.1397813,3.43117812 C1.76671188,3.43117812 1.50100056,3.17870547 1.39297146,2.72547964 L2.68395272,2.72207705 Z M3.25227971,0.381771306 C2.85102878,0.273568743 2.46319761,0.22116876 2.05255284,0.221849279 C0.743454903,0.222529799 0.0617309125,0.827511422 0.0617309125,1.98371365 C0.0617309125,3.3352249 0.929318629,4.32878302 2.10757387,4.32878302 C3.07178389,4.32878302 3.68708005,3.77211827 3.68708005,2.89901205 C3.68708005,2.60911085 3.64480779,2.32669536 3.54348858,1.92859159 L1.21583058,1.92859159 C1.20643675,1.86734485 1.20375279,1.84012408 1.20375279,1.80405656 C1.20375279,1.34742814 1.55065368,1.11605159 2.2310357,1.11605159 C2.64906133,1.11605159 3.02749867,1.19295027 3.44686628,1.36512164 L3.25227971,0.381771306 L3.25227971,0.381771306 Z" id="path2941"></path>
                </g>
                <g id="g2943" transform="translate(26.585984, 11.096455) scale(1, -1) translate(-26.585984, -11.096455) translate(23.937783, 8.448254)" fill="#003873">
                    <path d="M3.3549409,2.72207705 C3.3549409,3.13311068 3.19054879,3.52168718 2.71012126,3.52168718 C2.11294178,3.52168718 1.7425563,2.80646144 1.7425563,2.17357852 C1.7425563,1.64005142 1.99618983,1.28209829 2.41488646,1.29026452 C2.66851999,1.29026452 3.20933646,1.64005142 3.31669457,2.25251876 C3.34152113,2.39474728 3.3549409,2.55262775 3.3549409,2.72207705 Z M4.54393195,2.25183824 C4.36947503,0.943199697 3.4683379,0.362036247 2.26995301,0.362036247 C0.945422345,0.362036247 0.409973778,1.17797884 0.409973778,2.17562008 C0.409973778,3.57068457 1.31580782,4.5152453 2.71548916,4.5152453 C3.92997777,4.5152453 4.5754684,3.73741179 4.5754684,2.73977055 C4.5754684,2.49750569 4.57479741,2.48049271 4.54393195,2.25183824 L4.54393195,2.25183824 Z" id="path2945"></path>
                </g>
                <g id="g2947" transform="translate(29.261864, 12.292716) scale(1, -1) translate(-29.261864, -12.292716) translate(28.202584, 11.233436)" fill="#FFFFFF">
                    <path d="M0.67098818,0.680519262 L0.705879565,0.680519262 C0.71862834,0.680519262 0.732719092,0.679158223 0.743454903,0.685282897 C0.753519726,0.69140757 0.759558619,0.704337436 0.759558619,0.716586783 C0.759558619,0.726794571 0.752177749,0.738363399 0.744125891,0.743127034 C0.73339008,0.750612746 0.715944388,0.749251707 0.704537589,0.749251707 L0.67098818,0.749251707 L0.67098818,0.680519262 Z M0.67098818,0.526721909 L0.609257267,0.526721909 L0.609257267,0.796888055 L0.721983281,0.796888055 C0.744796879,0.796888055 0.768952454,0.796888055 0.790424076,0.783958189 C0.811895697,0.768986766 0.824644473,0.742446514 0.824644473,0.715906263 C0.824644473,0.685282897 0.806527792,0.656701088 0.7776753,0.645812779 L0.826657437,0.526721909 L0.757545655,0.526721909 L0.716615376,0.632882913 L0.67098818,0.632882913 L0.67098818,0.526721909 Z M0.712589447,0.428727135 C0.840077201,0.428727135 0.942738392,0.532166063 0.942738392,0.661464722 C0.942738392,0.790763382 0.840077201,0.895563348 0.712589447,0.895563348 C0.585101693,0.895563348 0.481769513,0.790763382 0.481769513,0.661464722 C0.481769513,0.532166063 0.585101693,0.428727135 0.712589447,0.428727135 Z M0.408631801,0.661464722 C0.408631801,0.832275057 0.544171414,0.969739948 0.712589447,0.969739948 C0.879665503,0.969739948 1.01654709,0.832275057 1.01654709,0.661464722 C1.01654709,0.491334907 0.879665503,0.353189497 0.712589447,0.353189497 C0.544171414,0.353189497 0.408631801,0.491334907 0.408631801,0.661464722 L0.408631801,0.661464722 Z" id="path2949"></path>
                </g>
                <g id="g2951" transform="translate(6.449183, 10.350599) scale(1, -1) translate(-6.449183, -10.350599) translate(3.271341, 7.702398)" fill="#FFFFFF">
                    <polyline id="path2953" points="5.36790544 0 4.19703106 0 4.89351679 3.71903777 3.29052603 0 2.22298384 0 2.02772628 3.69862219 1.32922758 0 0.267053295 0 1.1749003 4.83781143 3.00200112 4.83781143 3.09862341 1.84284616 4.38759171 4.83781143 6.29118517 4.83781143 5.36790544 0"></polyline>
                </g>
                <g id="g2955" transform="translate(21.300814, 10.452488) scale(1, -1) translate(-21.300814, -10.452488) translate(19.711894, 7.274647)" fill="#FFFFFF">
                    <path d="M2.01296454,0.680519262 C1.69290318,0.590690719 1.4419536,0.55258164 1.17221635,0.55258164 C0.572352917,0.55258164 0.245581674,0.85745427 0.245581674,1.4168411 C0.245581674,1.52776574 0.257659461,1.64481506 0.279802071,1.7700306 L0.350926818,2.15452398 L0.406618837,2.4662018 L0.948777286,5.47001383 L2.11361277,5.47001383 L1.94452374,4.56560373 L2.54237421,4.56560373 L2.38200804,3.61015468 L1.78080263,3.61015468 L1.47281905,1.96874222 C1.45939929,1.89592666 1.4533604,1.84216564 1.4533604,1.80609812 C1.4533604,1.60262286 1.57346728,1.51347484 1.85259836,1.51347484 C1.98545402,1.51347484 2.08945719,1.5264047 2.16796281,1.55158392 L2.01296454,0.680519262" id="path2957"></path>
                </g>
                <g id="g2959" transform="translate(23.497859, 10.948101) scale(1, -1) translate(-23.497859, -10.948101) translate(21.379299, 8.299900)" fill="#003873">
                    <path d="M3.3549409,3.40259631 L3.32743038,3.52781185 L3.56160526,4.14368178 C3.50658423,4.14980646 3.48377063,4.15048698 3.47236383,4.15457009 C3.40996193,4.16818048 3.37708351,4.17566619 3.3717156,4.17634671 C3.33615323,4.1831519 3.29723591,4.1865545 3.25362168,4.1865545 C2.86914546,4.1865545 2.59202734,4.01370261 2.23439064,3.54822743 L2.35718147,4.24780123 L1.14403485,4.24780123 L0.422722553,0.319163534 L1.58621606,0.319163534 C1.74658223,1.22153207 1.81703599,1.73532412 1.91164532,2.15996814 C2.06731458,2.86906921 2.58733042,3.1902743 2.95838688,3.11881978 C2.99931716,3.11065355 3.03555052,3.10929251 3.08922958,3.08819641 L3.16035433,3.06097564 L3.3549409,3.40259631" id="path2961"></path>
                </g>
                <g id="g2963" transform="translate(23.908504, 11.061264) scale(1, -1) translate(-23.908504, -11.061264) translate(21.789944, 8.942703)" fill="#FFFFFF">
                    <path d="M3.3549409,4.08311557 C3.25630564,4.12190517 3.23416303,4.12190517 3.22208524,4.12598828 C3.15968334,4.13959867 3.12747591,4.1477649 3.12143701,4.14844542 C3.08587464,4.15525061 3.04695732,4.15933373 3.00334309,4.15933373 C2.61886686,4.15933373 2.34174875,3.9851208 1.98411205,3.51964562 L2.08744423,4.11509998 L1.02661191,4.11509998 L0.312680492,0.181018124 L1.48422585,0.181018124 C1.90359347,2.58733423 2.0834183,3.00925618 2.64570639,3.00925618 C2.68730766,3.00925618 2.7362898,3.00585358 2.79399478,2.99972891 L2.93020538,2.97046658 L3.3549409,4.08311557" id="path2965"></path>
                </g>
                <g id="g2967" transform="translate(18.530534, 11.061756) scale(1, -1) translate(-18.530534, -11.061756) translate(16.411974, 8.413555)" fill="#FFFFFF">
                    <path d="M0.67098818,3.40259631 C0.67098818,2.90581725 0.94743531,2.56283554 1.57413827,2.30627978 C2.05322383,2.10892919 2.12703253,2.05040454 2.12703253,1.87142797 C2.12703253,1.62712155 1.91567125,1.51687743 1.4473215,1.51687743 C1.09371073,1.51687743 0.764926525,1.5651943 0.385818203,1.67203583 L0.223439064,0.76490365 L0.275776142,0.7560569 L0.493176312,0.715225744 C0.562288094,0.702976397 0.666291262,0.692768608 0.802501863,0.6818803 C1.08364591,0.659423165 1.30171707,0.648534856 1.45537336,0.648534856 C2.70542434,0.648534856 3.28247417,1.06297109 3.28247417,1.96125651 C3.28247417,2.50158881 3.04158942,2.81803026 2.44843587,3.05689252 C1.95123363,3.25560415 1.89419963,3.2998379 1.89419963,3.48289758 C1.89419963,3.69521959 2.09079917,3.80410267 2.47393342,3.80410267 C2.70609533,3.80410267 3.02414373,3.78164554 3.32541742,3.74557802 L3.49383545,4.65611279 C3.18719385,4.69830498 2.72219904,4.73301146 2.45179081,4.73301146 C1.12591817,4.73301146 0.667633239,4.12871036 0.67098818,3.40259631" id="path2969"></path>
                </g>
                <g id="g2971" transform="translate(11.026203, 10.639147) scale(1, -1) translate(-11.026203, -10.639147) translate(8.907642, 7.990946)" fill="#FFFFFF">
                    <path d="M2.68395272,2.04155779 C2.56116188,2.05448765 2.50681184,2.05789025 2.42226733,2.05789025 C1.75866002,2.05789025 1.42249494,1.85645655 1.42249494,1.45971382 C1.42249494,1.21472688 1.58621606,1.05752693 1.84253354,1.05752693 C2.31960614,1.05752693 2.66449406,1.46039434 2.68395272,2.04155779 Z M3.53879166,0.288540167 L2.56518781,0.288540167 L2.58733042,0.696851724 C2.29142463,0.374285594 1.89688358,0.220488241 1.35942205,0.220488241 C0.724667234,0.220488241 0.289866894,0.658742645 0.289866894,1.29570867 C0.289866894,2.25319928 1.04674156,2.81190559 2.34644566,2.81190559 C2.47930132,2.81190559 2.64906133,2.8016978 2.82418925,2.78128222 C2.85975162,2.9112614 2.86914546,2.9677445 2.86914546,3.03783798 C2.86914546,3.29847686 2.66583604,3.39579112 2.11830968,3.39579112 C1.78482856,3.39579112 1.40572024,3.35359892 1.14537682,3.28622751 L0.983668671,3.24403532 L0.878994515,3.21817559 L1.04070267,4.10353115 C1.62513337,4.2539259 2.01028059,4.31177004 2.44306796,4.31177004 C3.44887924,4.31177004 3.98097287,3.91230524 3.98097287,3.15828989 C3.98097287,2.96366138 3.96285619,2.8159887 3.88569255,2.37841482 C3.79041223,1.69109037 3.6159553,0.986752929 3.53879166,0.288540167 L3.53879166,0.288540167 Z" id="path2973"></path>
                </g>
                <g id="g2975" transform="translate(15.098430, 10.646632) scale(1, -1) translate(-15.098430, -10.646632) translate(12.979869, 7.998431)" fill="#FFFFFF">
                    <path d="M2.68395272,2.72207705 C2.6906626,2.80441988 2.69334655,2.87179128 2.69334655,2.92283023 C2.69334655,3.24267428 2.48802417,3.4304976 2.1397813,3.4304976 C1.76805385,3.4304976 1.50032957,3.17802495 1.39230047,2.72479912 L2.68395272,2.72207705 Z M3.30797173,0.381771306 C2.90537882,0.274249262 2.51754765,0.22116876 2.10690288,0.22116876 C0.798475934,0.223210318 0.116080955,0.826830903 0.116080955,1.98371365 C0.116080955,3.3352249 0.984339659,4.32946354 2.16326589,4.32946354 C3.12613393,4.32946354 3.74210108,3.77211827 3.74210108,2.89901205 C3.74210108,2.60979137 3.70049981,2.32669536 3.59783862,1.92791107 L1.27018062,1.92791107 C1.26078679,1.86734485 1.25810284,1.83944356 1.25810284,1.80337604 C1.25810284,1.34810866 1.6063457,1.11537107 2.28605673,1.11537107 C2.70475335,1.11537107 3.0825197,1.19295027 3.5025583,1.36444112 L3.30797173,0.381771306 L3.30797173,0.381771306 Z" id="path2977"></path>
                </g>
                <g id="g2979" transform="translate(26.872496, 10.785458) scale(1, -1) translate(-26.872496, -10.785458) translate(24.224295, 8.137257)" fill="#FFFFFF">
                    <path d="M3.3549409,2.72207705 C3.3549409,3.1337912 3.18987781,3.5223677 2.70945027,3.5223677 C2.11227079,3.5223677 1.74121433,2.80578092 1.74121433,2.17425904 C1.74121433,1.64073194 1.99618983,1.28141777 2.41488646,1.289584 C2.667849,1.289584 3.20933646,1.64073194 3.31669457,2.25319928 C3.34152113,2.3954278 3.3549409,2.55330827 3.3549409,2.72207705 Z M4.56070666,2.21917331 C4.38490775,0.910534772 3.48444162,0.329371323 2.28605673,0.329371323 C0.960855073,0.329371323 0.426077494,1.14531392 0.426077494,2.14363567 C0.426077494,3.53801964 1.33191154,4.48189986 2.73159288,4.48189986 C3.94608148,4.48189986 4.59090112,3.70474686 4.59090112,2.70710562 C4.59090112,2.46416025 4.59090112,2.4485083 4.56070666,2.21917331 L4.56070666,2.21917331 Z" id="path2981"></path>
                </g>
            </g>
        </g>
    </g>
</svg>