<?xml version="1.0" encoding="UTF-8"?>
<svg width="18px" height="19px" viewBox="0 0 18 19" version="1.1" xmlns="http://www.w3.org/2000/svg" xmlns:xlink="http://www.w3.org/1999/xlink">
    <!-- Generator: sketchtool 41.2 (35396) - http://www.bohemiancoding.com/sketch -->
    <title>9B0DAC7B-7F9A-4C3F-A0C5-5A7CB6C7331C</title>
    <desc>Created with sketchtool.</desc>
    <defs></defs>
    <g id="Symbols" stroke="none" stroke-width="1" fill="none" fill-rule="evenodd">
        <g id="Icon/Print" fill="#48C1CC">
            <path d="M13.2555452,3 L4.7004548,3 C4.31336136,3 4,2.70459966 4,2.33969336 L4,0.660306644 C4,0.295400341 4.31336136,0 4.7004548,0 L13.2555452,0 C13.6426386,0 13.956,0.295400341 13.956,0.660306644 L13.956,2.33969336 C13.956,2.70459966 13.6426386,3 13.2555452,3 Z M15.5490196,4 L2.45098039,4 C1.09705882,4 0,5.2644244 0,6.82237589 L0,12.1160241 C0,13.6751046 1.09705882,14.9384 2.45098039,14.9384 L2.78431373,14.9384 C3.10784314,14.9384 3.36960784,14.6369703 3.36960784,14.2644166 L3.36960784,12.7437205 C3.36960784,11.8089496 4.02843137,11.050295 4.84019608,11.050295 L13.1735294,11.050295 C13.9862745,11.050295 14.6441176,11.8089496 14.6441176,12.7437205 L14.6441176,14.2644166 C14.6441176,14.6369703 14.9068627,14.9384 15.2294118,14.9384 L15.5490196,14.9384 C16.9029412,14.9384 18,13.6751046 18,12.1160241 L18,6.82237589 C18,5.2644244 16.9029412,4 15.5490196,4 Z M16.1352941,7.31121139 C16.1352941,7.71311772 15.8519608,8.03938437 15.5019608,8.03938437 L14.9715686,8.03938437 C14.6215686,8.03938437 14.3382353,7.71311772 14.3382353,7.31121139 L14.3382353,6.74673622 C14.3382353,6.34370094 14.6215686,6.01743429 14.9715686,6.01743429 L15.5019608,6.01743429 C15.8519608,6.01743429 16.1352941,6.34370094 16.1352941,6.74673622 L16.1352941,7.31121139 Z M13.1926561,12 L4.76334393,12 C4.34155304,12 4,12.3830603 4,12.8576159 L4,18.1423841 C4,18.6157198 4.34155304,19 4.76334393,19 L13.1926561,19 C13.614447,19 13.956,18.6157198 13.956,18.1423841 L13.956,12.8576159 C13.956,12.3830603 13.614447,12 13.1926561,12 Z M11.3840514,17 L6.56002135,17 C6.23256415,17 5.96908037,16.7781818 5.96908037,16.5045455 C5.96908037,16.2309091 6.23364844,16 6.56002135,16 L11.3840514,16 C11.7104243,16 11.9749924,16.2209091 11.9749924,16.4954545 C11.9749924,16.7681818 11.7104243,17 11.3840514,17 L11.3840514,17 Z M11.3840514,15 L6.56002135,15 C6.23256415,15 5.96908037,14.7783833 5.96908037,14.5049955 C5.96908037,14.2316076 6.23364844,14 6.56002135,14 L11.3840514,14 C11.7104243,14 11.9749924,14.2216167 11.9749924,14.4950045 C11.9749924,14.7683924 11.7104243,15 11.3840514,15 L11.3840514,15 Z" id="printing"></path>
        </g>
    </g>
</svg>