<?xml version="1.0" encoding="UTF-8"?>
<svg width="11px" height="6px" viewBox="0 0 11 6" version="1.1" xmlns="http://www.w3.org/2000/svg" xmlns:xlink="http://www.w3.org/1999/xlink">
    <!-- Generator: sketchtool 41.1 (35375) - http://www.bohemiancoding.com/sketch -->
    <title>D99B1689-43D1-475A-83E7-420A7D6940A9</title>
    <desc>Created with sketchtool.</desc>
    <defs></defs>
    <g id="Symbols" stroke="none" stroke-width="1" fill="none" fill-rule="evenodd">
        <g id="Icon/Dropdown-Menu" fill="#1F3031">
            <path d="M3.76702652,3 L8.29582984,-1.52880332 C8.50978246,-1.74275594 8.51161123,-2.08821259 8.29991191,-2.29991191 C8.08821259,-2.51161123 7.74275594,-2.50978246 7.52880332,-2.29582984 L2.6481992,2.58477427 C2.63687593,2.59436713 2.62585836,2.60450249 2.61518042,2.61518042 C2.50927838,2.72108247 2.45674654,2.86039229 2.45750617,3 C2.45674654,3.13960771 2.50927838,3.27891753 2.61518042,3.38481958 C2.62585836,3.39549751 2.63687593,3.40563287 2.6481992,3.41522573 L7.52880332,8.29582984 C7.74275594,8.50978246 8.08821259,8.51161123 8.29991191,8.29991191 C8.51161123,8.08821259 8.50978246,7.74275594 8.29582984,7.52880332 L3.76702652,3 Z" id="Menu-Icon" transform="translate(5.457498, 3.000000) rotate(-90.000000) translate(-5.457498, -3.000000) "></path>
        </g>
    </g>
</svg>