<?xml version="1.0" encoding="UTF-8"?>
<svg width="78px" height="20px" viewBox="0 0 78 20" version="1.1" xmlns="http://www.w3.org/2000/svg" xmlns:xlink="http://www.w3.org/1999/xlink">
    <!-- Generator: sketchtool 41.2 (35396) - http://www.bohemiancoding.com/sketch -->
    <title>B8511A1F-A314-4FBB-B6E4-BE43A2D698BE</title>
    <desc>Created with sketchtool.</desc>
    <defs></defs>
    <g id="Symbols" stroke="none" stroke-width="1" fill="none" fill-rule="evenodd">
        <g id="Logos/Security/Dark" transform="translate(-76.000000, 0.000000)" fill="#C1CCD7">
            <g id="secure">
                <g id="Logo/Thawte/Dark" transform="translate(76.000000, 0.000000)">
                    <g id="Thawte" transform="translate(0.009672, 0.400444)">
                        <path d="M33.1951943,6.69449646 C32.7734857,6.46687848 32.2040588,6.30585709 31.522797,6.30585709 C29.9218526,6.30585709 28.959905,7.0691155 28.5679074,7.37724418 L29.144239,3.92250673 L26.8791899,3.92250673 L25.3025165,13.3762472 L27.5675657,13.3762472 L28.4274076,8.2210133 C28.9949515,7.77862931 29.688035,7.40401027 30.4374021,7.40401027 C30.8287719,7.40401027 31.166369,7.52424524 31.3881557,7.72530956 C31.8029596,8.0999286 31.7260666,8.66244135 31.6185209,9.30535858 L30.9396653,13.3762472 L33.2049236,13.3762472 L33.962137,8.83673958 C34.0623595,8.2340777 34.2207487,7.28345665 33.1951943,6.69449646 L33.1951943,6.69449646 Z M39.1956758,6.22534639 C36.6072574,6.22534639 35.7293168,7.40401027 35.244943,8.06020433 L35.7863327,8.28782231 C36.1869088,7.92648009 36.9097033,7.27017982 38.3574894,7.27017982 C39.0045416,7.27017982 39.946089,7.44394698 40.2343071,8.16726869 C40.3468744,8.4531985 40.3440497,8.7585656 40.315071,9.05904682 L40.3639268,9.05904682 L40.0083358,11.1883318 L39.9694185,11.1883318 L39.8364511,11.9833483 C39.3558434,12.2109663 38.7660163,12.4790521 37.9655964,12.4790521 C36.8246502,12.4790521 36.5035826,11.8497303 36.601922,11.2605577 C36.7474433,10.3898101 37.7020678,9.9750419 38.7066988,9.9750419 C39.0154217,9.9750419 39.2798919,10.009243 39.5230204,10.0618193 L39.6892558,9.06711914 C39.272778,8.97842991 38.8514879,8.91714406 38.2870825,8.91714406 C36.2603495,8.91714406 34.4612617,9.8009561 34.1976284,11.3810051 C33.9920573,12.6124577 34.9553648,13.5767804 36.7263108,13.5767804 C38.3443077,13.5767804 39.307406,12.9075219 39.733927,12.5994995 L39.6048304,13.3762472 L41.8007281,13.3762472 L42.4913008,9.23812471 C42.596231,8.6091216 42.7306631,7.69886212 41.9935361,7.01537089 C41.5663874,6.61409198 40.6773575,6.22534639 39.1956758,6.22534639 L39.1956758,6.22534639 Z M59.0604423,12.7866497 C58.8904407,12.7866497 58.2093881,12.7866497 57.9007698,12.1844127 C57.7686393,11.9567947 57.713088,11.6757507 57.8095443,11.0995363 L58.3301154,7.97565747 L60.8053388,7.97565747 L61.0484673,6.52030445 L58.5732439,6.52030445 L58.8838499,4.65889285 L56.6185915,4.65889285 L56.3079855,6.52030445 L53.924406,6.52030445 L51.8566633,9.93468033 L51.4937491,10.5779162 C51.3669541,10.2158305 51.3603633,10.1492339 51.2435068,9.82772219 L50.0586217,6.52030445 L49.3092546,6.52030445 L46.3695345,10.5644269 C46.3063462,10.2298508 46.2854229,10.1492339 46.2180499,9.84110523 L45.3413647,6.52019823 L42.9734777,6.52019823 L45.0573313,13.4293545 L45.891333,13.4293545 L48.8566842,9.43993253 L50.4902689,13.4293545 L51.3076366,13.4293545 L54.8119713,7.97555126 L56.064857,7.97555126 L55.4978363,11.3811113 C55.3970907,11.9833483 55.3815029,12.5865413 55.9314712,13.0682247 C56.5084305,13.5903759 57.4045743,13.6304188 57.8129967,13.6304188 C58.9370996,13.6304188 59.6015182,13.3223963 60.1528465,13.0812891 L59.95146,12.6531379 C59.6683681,12.7201593 59.4180211,12.7866497 59.0604423,12.7866497 L59.0604423,12.7866497 Z M63.7411882,9.07784681 C63.7108494,9.12362533 63.645778,9.26786481 63.5706635,9.71619681 C63.5408478,9.89113233 63.5255738,10.0224136 63.5179368,10.1226802 L69.5617295,10.1226802 C69.6694843,9.37238002 69.8646985,8.10003482 68.816547,7.13634937 C67.8986429,6.30585709 66.5518117,6.21206956 65.8027585,6.21206956 C62.7201324,6.21206956 60.8129758,7.84586318 60.4776804,9.85448828 C60.1272155,11.9566885 61.4958069,13.6568662 64.6293812,13.6568662 C67.6264311,13.6568662 68.5596092,12.2514341 69.0593616,11.5015587 L68.5327228,11.2870052 C67.8359777,11.8892422 67.1007338,12.5188826 65.5174696,12.5188826 C63.2090047,12.5188826 62.8998633,11.1293826 62.8580167,10.4138146 C62.8475551,10.3858801 62.8086378,10.2432339 62.8851124,9.76771091 C62.9634701,9.28273486 63.0642156,9.09632816 63.0840927,9.06233948 C63.4511916,8.27550141 63.9417378,7.33667019 65.5640239,7.33667019 C67.2669693,7.33667019 67.2669693,8.46148325 67.2661323,9.0777406 L63.7411882,9.0777406 L63.7411882,9.07784681 Z M23.4288372,4.65889285 L21.1639973,4.65889285 L20.042719,11.3812175 C19.9420781,11.9834546 19.9268041,12.5866475 20.4764585,13.0683309 C21.0537317,13.5904821 21.9494571,13.630525 22.3582979,13.630525 C23.4821916,13.630525 24.1466102,13.3225026 24.6979385,13.0813953 L24.4966566,12.6532441 C24.2131462,12.7202655 23.9637408,12.7867559 23.6063712,12.7867559 C23.4356373,12.7867559 22.7545847,12.7867559 22.4464895,12.1845189 C22.3142544,11.9569009 22.2587031,11.675857 22.3546363,11.0996425 L22.8758351,7.97523262 L24.7088186,7.97523262 L24.9500639,6.52975755 L23.1171851,6.52975755 L23.4288372,4.65889285 L23.4288372,4.65889285 Z" id="Shape"></path>
                        <path d="M8.65878353,0 C3.87645517,0 0,3.93567735 0,8.79000513 C0,13.6443329 3.87645517,17.5797978 8.65878353,17.5797978 C13.4410073,17.5797978 17.3174624,13.6443329 17.3174624,8.79000513 C17.3174624,3.93567735 13.4410073,0 8.65878353,0 L8.65878353,0 Z M8.65878353,15.8328856 C4.82679032,15.8328856 1.72062552,12.6795853 1.72062552,8.79000513 C1.72062552,4.9001063 4.8266857,1.746806 8.65878353,1.746806 C12.4907767,1.746806 15.5969415,4.9001063 15.5969415,8.79000513 C15.5968369,12.6795853 12.4907767,15.8328856 8.65878353,15.8328856 L8.65878353,15.8328856 Z M9.49665608,4.50137653 L7.23139771,4.50137653 L6.11064248,11.2234888 C6.01000152,11.8257258 5.99430907,12.4284939 6.54427735,12.9106022 C7.12102743,13.4332844 8.01748515,13.4727963 8.42590748,13.4727963 C9.55021966,13.4727963 10.2146383,13.1651987 10.7655481,12.9240914 L10.5646847,12.4955154 C10.2811743,12.5625368 10.0313504,12.6300893 9.6737716,12.6300893 C9.50376999,12.6300893 8.82229892,12.6300893 8.51409908,12.0267901 C8.38186398,11.7991722 8.32631269,11.5181282 8.42266437,10.9424449 L8.94344469,7.81782252 L10.7763236,7.81782252 L11.0175689,6.37213502 L9.18448081,6.37213502 L9.49665608,4.50137653 L9.49665608,4.50137653 Z" id="Shape"></path>
                        <path d="M70.7204604,5.30085414 L70.151975,5.30085414 L70.151975,6.79147043 L69.6807829,6.79147043 L69.6807829,5.30085414 L69.1122975,5.30085414 L69.1122975,4.9421673 L70.7203558,4.9421673 L70.7203558,5.30085414 L70.7204604,5.30085414 Z M72.913115,6.79147043 L72.4420275,6.79147043 L72.4420275,5.55258284 L72.1062089,6.35630904 L71.7832582,6.35630904 L71.4470212,5.55258284 L71.4470212,6.79147043 L71.0034477,6.79147043 L71.0034477,4.9421673 L71.5501729,4.9421673 L71.9584906,5.87058948 L72.3646114,4.9421673 L72.913115,4.9421673 L72.913115,6.79147043 L72.913115,6.79147043 Z" id="Shape"></path>
                        <path d="M75.4837486,14.9978261 L75.0572276,14.9978261 L75.0572276,16.1159476 L74.7039381,16.1159476 L74.7039381,14.9978261 L74.2775218,14.9978261 L74.2775218,14.7287844 L75.4837486,14.7287844 L75.4837486,14.9978261 L75.4837486,14.9978261 Z M77.3082582,16.1159476 L76.9549687,16.1159476 L76.9549687,15.1863571 L76.7032617,15.78955 L76.4610748,15.78955 L76.2094724,15.1863571 L76.2094724,16.1159476 L75.8770016,16.1159476 L75.8770016,14.7287844 L76.2863654,14.7287844 L76.5926822,15.4251276 L76.8971158,14.7287844 L77.3083628,14.7287844 L77.3083628,16.1159476 L77.3082582,16.1159476 Z" id="Shape"></path>
                        <path d="M42.633056,15.4139751 C42.4349126,15.4139751 42.2540309,15.5527976 42.2341538,15.7158371 C42.2241106,15.7977286 42.253717,15.8749466 42.3144991,15.9323025 C42.3752813,15.9896584 42.4626359,16.0224788 42.5595107,16.0224788 C42.757131,16.0224788 42.9327819,15.88355 42.9537052,15.7158371 C42.9735823,15.5527976 42.8263871,15.4139751 42.633056,15.4139751 L42.633056,15.4139751 Z M41.9553511,18.3817184 L42.5974864,18.3817184 L42.850135,16.2915204 L42.2085228,16.2915204 L41.9553511,18.3817184 L41.9553511,18.3817184 Z M44.1973847,15.7240156 L43.5557724,15.7240156 L43.4869349,16.2915204 L43.0960881,16.2915204 L43.0561246,16.6184491 L43.4474945,16.6184491 L43.3078316,17.7736396 C43.2855483,17.956966 43.2874314,18.141036 43.448436,18.2876122 C43.6174961,18.4467217 43.8716093,18.4592551 43.9868965,18.4592551 C44.3060811,18.4592551 44.4912521,18.3652551 44.6447243,18.2915422 L44.582896,18.161323 C44.5035968,18.1815038 44.4332946,18.2017908 44.3317121,18.2017908 C44.2837978,18.2017908 44.0904667,18.2017908 43.9969397,18.0185705 C43.9570808,17.9491062 43.9384591,17.8632847 43.9599055,17.6872871 L44.0895252,16.6184491 L44.6538259,16.6184491 L44.6936847,16.2915204 L44.1286517,16.2915204 L44.1973847,15.7240156 L44.1973847,15.7240156 Z M45.2113266,15.4997965 L44.7962088,16.6545621 L44.9852506,16.6917372 L45.9114194,15.4997965 L45.2113266,15.4997965 L45.2113266,15.4997965 Z M46.444649,16.5161644 C46.9318475,16.5161644 47.0273622,16.7282751 47.0614672,16.8016694 L47.2353396,16.7610954 C47.2258195,16.6792039 47.211487,16.5567384 47.0823904,16.4304492 C46.9437737,16.2954504 46.7044115,16.2018753 46.3766484,16.2018753 C45.6572016,16.2018753 45.294392,16.5692717 45.2540101,16.9038479 C45.2080835,17.2837776 45.5656622,17.4024194 45.6581431,17.4304601 C45.7649564,17.4671041 45.873339,17.4872849 45.98214,17.5085278 C46.2888752,17.5653526 46.4414059,17.6183538 46.4973757,17.7534588 C46.5078373,17.789678 46.5134866,17.8223921 46.5097204,17.8546813 C46.5077327,17.8672147 46.4850309,18.0591445 46.2058098,18.1328575 C46.1207567,18.1570744 46.0381098,18.1614292 45.9606937,18.1614292 C45.6909927,18.1614292 45.4687875,18.0842112 45.3472232,17.9693931 C45.2864411,17.9120372 45.2645763,17.8546813 45.2417699,17.8021051 L45.0693621,17.8345006 C45.0716637,17.9328553 45.08223,18.0843174 45.2294252,18.2269637 C45.3243123,18.3166088 45.552376,18.4675398 46.0348667,18.4675398 C46.7442703,18.4675398 47.1280032,18.1286089 47.1717328,17.7655672 C47.1930746,17.5896758 47.1346986,17.4348149 47.0311284,17.3326364 C46.905798,17.2101709 46.7234517,17.1653483 46.5913212,17.1363517 C46.5020834,17.1161709 46.4128456,17.1001325 46.3230848,17.0837755 C46.1117597,17.0341732 45.8961454,16.981597 45.9189517,16.7935971 C45.9350627,16.6589169 46.0927195,16.5161644 46.444649,16.5161644 L46.444649,16.5161644 Z M53.0643548,15.7240156 L52.4227425,15.7240156 L52.353905,16.2915204 L51.9630582,16.2915204 L51.9236178,16.6184491 L52.3149877,16.6184491 L52.1743833,17.7736396 C52.1525184,17.956966 52.1544015,18.141036 52.3149877,18.2876122 C52.4844662,18.4467217 52.7385794,18.4592551 52.8543897,18.4592551 C53.1730512,18.4592551 53.3579083,18.3652551 53.5116944,18.2915422 L53.4498661,18.161323 C53.3700438,18.1815038 53.3002647,18.2017908 53.1992053,18.2017908 C53.151291,18.2017908 52.9579599,18.2017908 52.8639098,18.0185705 C52.824051,17.9491062 52.8059523,17.8632847 52.8272941,17.6872871 L52.9564953,16.6184491 L53.5211099,16.6184491 L53.5604456,16.2915204 L52.9959357,16.2915204 L53.0643548,15.7240156 L53.0643548,15.7240156 Z M54.5108854,16.5528085 L54.5422703,16.2915204 L53.8963688,16.2915204 L53.6431972,18.3817184 L54.2896218,18.3817184 L54.4852544,16.7610954 C54.603994,16.6993847 54.7587216,16.6184491 54.9952592,16.6184491 C55.1738394,16.6184491 55.2936251,16.6665643 55.4079708,16.7158479 L55.4654052,16.2423431 C55.4084939,16.2345894 55.3462472,16.2307657 55.2835819,16.2307657 C54.8442978,16.2307657 54.6201049,16.4468063 54.5108854,16.5528085 L54.5108854,16.5528085 Z M57.0573526,17.8835717 C56.9063912,18.0142157 56.7296941,18.1163942 56.5221352,18.1163942 C56.2034737,18.1163942 56.1009497,17.9282881 56.1341131,17.6549978 L56.2988839,16.2914142 L55.6525639,16.2914142 L55.4777499,17.7320034 C55.4549436,17.9201096 55.3913368,18.4466155 56.2261755,18.4466155 C56.6706905,18.4466155 56.8872464,18.2508619 57.0278508,18.1245727 L56.9964659,18.3816122 L57.6433089,18.3816122 L57.8964805,16.2914142 L57.2496375,16.2914142 L57.0573526,17.8835717 L57.0573526,17.8835717 Z M59.4024333,16.5161644 C59.8896317,16.5161644 59.9846234,16.7282751 60.0192514,16.8016694 L60.1926007,16.7610954 C60.1836037,16.6792039 60.1692713,16.5567384 60.0396516,16.4304492 C59.9019764,16.2954504 59.6621957,16.2018753 59.3340141,16.2018753 C58.6149858,16.2018753 58.2520716,16.5692717 58.2113758,16.9038479 C58.1656585,17.2837776 58.5229234,17.4024194 58.6159273,17.4304601 C58.7227407,17.4671041 58.8311232,17.4872849 58.9399243,17.5085278 C59.2466595,17.5653526 59.3990855,17.6183538 59.4551599,17.7534588 C59.4652031,17.789678 59.4712708,17.8223921 59.4669816,17.8546813 C59.46604,17.8672147 59.4423967,18.0591445 59.163071,18.1328575 C59.078541,18.1570744 58.995894,18.1614292 58.919001,18.1614292 C58.6482538,18.1614292 58.4260486,18.0842112 58.3044844,17.9693931 C58.2442254,17.9120372 58.2218375,17.8546813 58.1995542,17.8021051 L58.0262048,17.8345006 C58.0290295,17.9328553 58.0400142,18.0843174 58.1866864,18.2269637 C58.2820965,18.3166088 58.5096371,18.4675398 58.9925463,18.4675398 C59.7016361,18.4675398 60.085369,18.1286089 60.1295171,17.7655672 C60.1508588,17.5896758 60.0920644,17.4348149 59.9883896,17.3326364 C59.8635822,17.2101709 59.6807128,17.1653483 59.5486869,17.1363517 C59.4598676,17.1161709 59.3701068,17.1001325 59.2807644,17.0837755 C59.0693347,17.0341732 58.8533019,16.981597 58.8762129,16.7935971 C58.8924284,16.6589169 59.0500853,16.5161644 59.4024333,16.5161644 L59.4024333,16.5161644 Z M61.5081517,15.7240156 L60.866121,15.7240156 L60.7972834,16.2915204 L60.4064366,16.2915204 L60.3669962,16.6184491 L60.757843,16.6184491 L60.6181802,17.7736396 C60.5963153,17.956966 60.598303,18.141036 60.7587846,18.2876122 C60.9278446,18.4467217 61.1819578,18.4592551 61.2977681,18.4592551 C61.6164296,18.4592551 61.8016006,18.3652551 61.9554913,18.2915422 L61.8937676,18.161323 C61.8139453,18.1815038 61.7436431,18.2017908 61.6425837,18.2017908 C61.5945648,18.2017908 61.4012337,18.2017908 61.3078113,18.0185705 C61.2678478,17.9491062 61.2489123,17.8632847 61.2707771,17.6872871 L61.3998737,16.6184491 L61.9644883,16.6184491 L62.0039287,16.2915204 L61.4393141,16.2915204 L61.5081517,15.7240156 L61.5081517,15.7240156 Z M64.2854026,15.7240156 L63.6433719,15.7240156 L63.5749528,16.2915204 L63.1836875,16.2915204 L63.1442471,16.6184491 L63.5350939,16.6184491 L63.3954311,17.7736396 C63.3735662,17.956966 63.375554,18.141036 63.5360355,18.2876122 C63.7050955,18.4467217 63.9592087,18.4592551 64.075019,18.4592551 C64.3936805,18.4592551 64.578433,18.3652551 64.7318006,18.2915422 L64.6710185,18.161323 C64.5911962,18.1815038 64.520894,18.2017908 64.4198346,18.2017908 C64.3718157,18.2017908 64.1784846,18.2017908 64.0850622,18.0185705 C64.0450988,17.9491062 64.0261632,17.8632847 64.048028,17.6872871 L64.1772292,16.6184491 L64.7418438,16.6184491 L64.7811796,16.2915204 L64.216565,16.2915204 L64.2854026,15.7240156 L64.2854026,15.7240156 Z M67.0308501,16.3445216 C66.9087628,16.2751634 66.7458751,16.225986 66.5526487,16.225986 C66.0991367,16.225986 65.8346665,16.4593396 65.7263885,16.5528085 L65.8541251,15.4997965 L65.2120944,15.4997965 L64.8639311,18.3817184 L65.5051249,18.3817184 L65.6955267,16.810379 C65.8517189,16.6753802 66.0441085,16.5605621 66.2562705,16.5605621 C66.3674777,16.5605621 66.4643524,16.5981621 66.5293192,16.6589169 C66.650465,16.7732038 66.6352956,16.9444219 66.6110246,17.1400692 L66.4604816,18.3816122 L67.1026169,18.3816122 L67.2697939,16.9978478 C67.2924957,16.8142027 67.3276468,16.5243429 67.0308501,16.3445216 L67.0308501,16.3445216 Z M68.3002652,15.4139751 C68.1018079,15.4139751 67.9213447,15.5527976 67.901363,15.7158371 C67.8918429,15.7977286 67.9208216,15.8749466 67.9816037,15.9323025 C68.0419674,15.9896584 68.1298451,16.0224788 68.2261968,16.0224788 C68.4238171,16.0224788 68.6004096,15.88355 68.6203913,15.7158371 C68.63985,15.5527976 68.4926547,15.4139751 68.3002652,15.4139751 L68.3002652,15.4139751 Z M67.6220372,18.3817184 L68.2641726,18.3817184 L68.5168211,16.2915204 L67.8746858,16.2915204 L67.6220372,18.3817184 L67.6220372,18.3817184 Z M70.4886305,16.2307657 C70.0203676,16.2307657 69.7820515,16.4428763 69.6423887,16.5653418 L69.6755521,16.2915204 L69.0335214,16.2915204 L68.7803497,18.3817184 L69.4224851,18.3817184 L69.6100622,16.826736 C69.7340326,16.7200965 69.9116712,16.5691655 70.177083,16.5691655 C70.4089129,16.5691655 70.5142615,16.6954547 70.5384279,16.8142027 C70.5541204,16.8835609 70.5455418,16.9569552 70.5370679,17.0263133 L70.3732387,18.3817184 L71.0195586,18.3817184 L71.1906064,16.9694885 C71.2114251,16.7934908 71.2219913,16.5856288 71.0585805,16.4222707 C70.9422471,16.3078775 70.7441037,16.2307657 70.4886305,16.2307657 L70.4886305,16.2307657 Z M73.5052437,16.2915204 L73.4781481,16.5161644 C73.3893288,16.4096311 73.2213149,16.2017691 72.7730337,16.2017691 C72.1646895,16.2017691 71.6555216,16.6222728 71.5771639,17.2712443 C71.494517,17.9529299 71.9784723,18.3001455 72.4656708,18.3001455 C72.7310825,18.3001455 72.9990051,18.2017908 73.1685882,18.0793253 C73.215561,18.0470361 73.2587675,18.0104982 73.3019741,17.9693931 C73.2763431,18.2231399 73.2430751,18.5002539 72.981848,18.7004685 C72.9020257,18.7611171 72.7082762,18.8875125 72.3806177,18.8875125 C72.1098705,18.8875125 71.9137148,18.7939374 71.8012522,18.6879352 C71.7584641,18.6430064 71.7214299,18.5900053 71.663577,18.5081138 L71.5020494,18.5692934 C71.5192064,18.6676482 71.5437913,18.8185792 71.687325,18.9530469 C71.8478065,19.103978 72.1527632,19.2106175 72.534613,19.2106175 C72.9349799,19.2106175 73.3110757,19.0963305 73.5343271,18.9251125 C73.8529885,18.6800753 73.8981828,18.3493229 73.9356355,18.0793253 L74.1516683,16.2915204 L73.5052437,16.2915204 L73.5052437,16.2915204 Z M73.3309528,17.7321096 C73.2340781,17.8141073 73.0416886,17.9692869 72.7616305,17.9692869 C72.4624277,17.9692869 72.2055945,17.7408192 72.2625058,17.2712443 C72.3195217,16.7977394 72.5983244,16.5281667 72.95538,16.5281667 C73.2497705,16.5281667 73.3609777,16.6878073 73.4436247,16.8053869 L73.3309528,17.7321096 L73.3309528,17.7321096 Z M49.63639,16.2017691 C48.9021923,16.2017691 48.6657593,16.5605621 48.5356165,16.7610954 L48.6913903,16.8305598 C48.8011329,16.7200965 48.9990671,16.5199881 49.4093725,16.5199881 C49.592765,16.5199881 49.8615244,16.5730955 49.9508668,16.7933846 C49.9912488,16.8955631 49.987901,17.0054953 49.9793225,17.1121348 C49.7926869,17.0628512 49.6429808,17.0223834 49.4064432,17.0223834 C48.8318901,17.0223834 48.3313007,17.2914251 48.2733433,17.7735333 C48.2277305,18.1491083 48.510927,18.4427918 49.0122487,18.4427918 C49.4710961,18.4427918 49.737031,18.2388597 49.8543059,18.1448597 L49.8262687,18.3816122 L50.4483177,18.3816122 L50.6007438,17.1197822 C50.6240732,16.9288083 50.6525289,16.6506322 50.4370191,16.4427701 C50.3117933,16.3198798 50.0557971,16.2017691 49.63639,16.2017691 L49.63639,16.2017691 Z M49.87774,17.956966 C49.743831,18.0263242 49.5794787,18.1083219 49.3524612,18.1083219 C49.0295104,18.1083219 48.9316941,17.916392 48.9535589,17.7371017 C48.9858854,17.4714589 49.2518202,17.3446386 49.5366906,17.3446386 C49.7001014,17.3446386 49.8216656,17.3812827 49.9422883,17.4227064 L49.87774,17.956966 L49.87774,17.956966 Z" id="Shape"></path>
                    </g>
                </g>
            </g>
        </g>
    </g>
</svg>