<?xml version="1.0" encoding="UTF-8"?>
<svg width="48px" height="21px" viewBox="0 0 48 21" version="1.1" xmlns="http://www.w3.org/2000/svg" xmlns:xlink="http://www.w3.org/1999/xlink">
    <!-- Generator: sketchtool 41.2 (35396) - http://www.bohemiancoding.com/sketch -->
    <title>F9D33DB5-0EA7-4EBE-A3AD-F09A7177EEB3</title>
    <desc>Created with sketchtool.</desc>
    <defs></defs>
    <g id="Symbols" stroke="none" stroke-width="1" fill="none" fill-rule="evenodd">
        <g id="Logos/Security/Dark" transform="translate(-272.000000, -1.000000)" fill="#C1CCD7">
            <g id="secure">
                <g id="Logo/Visa-verified/Dark" transform="translate(272.000000, 0.000000)">
                    <g id="VbyV_en_2c" transform="translate(0.372438, 0.929076)">
                        <path d="M19.0198495,11.0283304 L16.6808302,17.4325607 L16.4313348,16.1313703 C15.8488514,14.5357353 14.5876227,12.8618146 13.1188904,12.1834205 L15.2587555,20.4069238 L17.7883343,20.4056773 L21.5501651,11.0283304 L19.0198495,11.0283304" id="Fill-1"></path>
                        <polyline id="Fill-2" points="21.0246531 20.4161486 22.5201521 11.0193549 24.9097581 11.0193549 23.4135224 20.4161486 21.0246531 20.4161486"></polyline>
                        <path d="M32.0829964,11.2509713 C31.6107723,11.0614897 30.8657241,10.855553 29.9414124,10.855553 C27.5773452,10.855553 25.9165801,12.131313 25.9020917,13.9560711 C25.8868666,15.3076237 27.0896505,16.0615612 27.9938257,16.5105829 C28.9269778,16.9700758 29.2386015,17.265019 29.2356547,17.6761443 C29.2265688,18.3056721 28.489133,18.5926371 27.8037574,18.5926371 C26.8485043,18.5926371 26.3394453,18.4510245 25.5563343,18.1014807 L25.2459384,17.9516406 L24.9114771,20.0546376 C25.4706316,20.3164214 26.5027469,20.5433008 27.5756263,20.5550187 C30.084332,20.5550187 31.7166114,19.2937192 31.7360112,17.3460473 C31.7460794,16.2739801 31.1076069,15.4624502 29.7275241,14.7925328 C28.8945631,14.3569744 28.3793649,14.0682642 28.3869775,13.6267221 C28.3877141,13.2367888 28.8191742,12.8189319 29.7562553,12.8189319 C30.5388753,12.8057181 31.1017133,12.9879695 31.544715,13.1801936 L31.7578666,13.287899 L32.0829964,11.2509713" id="Fill-3"></path>
                        <path d="M38.2120866,11.0290783 L36.3659189,11.0290783 C35.7935037,11.0290783 35.3644994,11.1946254 35.1118116,11.8089449 L31.5643603,20.4191404 L34.0742938,20.4191404 C34.0742938,20.4191404 34.4846352,19.2603106 34.5774592,19.0062556 C34.8512657,19.0062556 37.2890027,19.0119899 37.6369702,19.0119899 C37.7108857,19.3395937 37.9279664,20.4191404 37.9279664,20.4191404 L40.1471493,20.4191404 L38.2120866,11.0290783 L38.2120866,11.0290783 Z M35.265045,17.0842635 C35.4634626,16.5449887 36.2171057,14.4576988 36.2171057,14.4576988 C36.2023717,14.4831293 36.4130676,13.9141857 36.5348685,13.5623981 L36.6939955,14.3724321 C36.6939955,14.3724321 37.1532046,16.6147978 37.2489754,17.0842635 L35.265045,17.0842635 L35.265045,17.0842635 Z" id="Fill-4"></path>
                        <path d="M14.511006,11.0235933 L10.6568423,11.0235933 L10.6342502,11.1854007 C13.6308962,11.963522 15.6081964,13.8742948 16.4313348,16.1338634 L15.593708,11.8151778 C15.4498061,11.2210532 15.0303788,11.044536 14.511006,11.0235933" id="Fill-5"></path>
                        <polyline id="Fill-6" points="3.42761493 8.75280541 1.90363025 8.75280541 0.145620838 0.707564353 1.82996034 0.42159666 3.03274426 6.71787227 6.09642989 0.504868857 7.71422092 0.504868857 3.42761493 8.75280541"></polyline>
                        <path d="M11.3525318,6.12275031 L7.71839555,6.12275031 C7.61918675,7.24143997 8.13119256,7.72960452 8.99877843,7.72960452 C9.72565479,7.72960452 10.3651095,7.45560409 11.0531864,7.01530859 L11.0477839,8.13399825 C10.3729677,8.56257581 9.59304896,8.83632692 8.67855992,8.83632692 C7.09613045,8.83632692 6.05100012,7.91983412 6.36507946,5.84874988 C6.64821745,3.98036113 7.92147891,2.84995353 9.39856042,2.84995353 C11.0983706,2.84995353 11.6636643,4.14715484 11.4166246,5.77769426 C11.3986982,5.89661893 11.3650557,6.03947811 11.3525318,6.12275031 L11.3525318,6.12275031 Z M9.21389454,3.83775126 C8.65105649,3.83775126 8.12529897,4.28976471 7.87727697,5.23019204 L10.1278924,5.23019204 C10.1693932,4.33738444 9.89362216,3.83775126 9.21389454,3.83775126 L9.21389454,3.83775126 Z" id="Fill-7"></path>
                        <path d="M13.7212647,5.42067095 L13.2215372,8.71740226 L11.8149332,8.71740226 L12.6862025,2.96862888 L13.8821106,2.96862888 L13.8828473,4.12322032 C14.3590004,3.45679343 15.0065589,2.89757326 15.8928078,2.84995353 L15.9009115,4.26607951 C15.012698,4.3256665 14.2136252,4.80161447 13.7212647,5.42067095" id="Fill-8"></path>
                        <path d="M15.882494,8.71740226 L16.7540089,2.96862888 L18.1606129,2.96862888 L17.2893435,8.71740226 L15.882494,8.71740226 L15.882494,8.71740226 Z M17.6152101,2.00476567 C17.1464239,2.00476567 16.8217852,1.67142756 16.8939817,1.19547959 C16.9678972,0.707564353 17.3954282,0.362258987 17.8642143,0.362258987 C18.3214589,0.362258987 18.644133,0.707564353 18.5702176,1.19547959 C18.4980211,1.67142756 18.0724546,2.00476567 17.6152101,2.00476567 L17.6152101,2.00476567 Z" id="Fill-9"></path>
                        <path d="M22.0565228,1.39767645 C21.575704,1.39767645 21.2854445,1.61184057 21.2078456,2.12393965 L21.07966,2.96862888 L22.1581873,2.96862888 L22.157205,4.13493827 L20.9028522,4.13493827 L20.208145,8.71740226 L18.8133282,8.71740226 L19.5080354,4.13493827 L18.6873527,4.13493827 L18.8641605,2.96862888 L19.6845976,2.96862888 L19.8343931,1.98083114 C20.0274082,0.707564353 20.896713,0.231367061 22.0572595,0.231367061 C22.3035626,0.231367061 22.4874918,0.255301585 22.6247633,0.27898679 L22.6353227,1.44529618 C22.4980511,1.42161097 22.2907931,1.39767645 22.0565228,1.39767645" id="Fill-10"></path>
                        <path d="M22.071748,8.71740226 L22.9432629,2.96862888 L24.3498669,2.96862888 L23.4785975,8.71740226 L22.071748,8.71740226 L22.071748,8.71740226 Z M23.804464,2.00476567 C23.3356779,2.00476567 23.0110392,1.67142756 23.0832357,1.19547959 C23.1571512,0.707564353 23.5846822,0.362258987 24.0534683,0.362258987 C24.5107128,0.362258987 24.8336326,0.707564353 24.7597171,1.19547959 C24.6875206,1.67142756 24.2617086,2.00476567 23.804464,2.00476567 L23.804464,2.00476567 Z" id="Fill-11"></path>
                        <path d="M29.8038952,6.12275031 L26.169759,6.12275031 C26.0705502,7.24143997 26.582556,7.72960452 27.4501419,7.72960452 C28.1770182,7.72960452 28.8162274,7.45560409 29.5045499,7.01530859 L29.4989018,8.13399825 C28.8243311,8.56257581 28.0441668,8.83632692 27.1296778,8.83632692 C25.5472483,8.83632692 24.5023636,7.91983412 24.8161973,5.84874988 C25.0995809,3.98036113 26.3728424,2.84995353 27.8499239,2.84995353 C29.5497341,2.84995353 30.1150278,4.14715484 29.867988,5.77769426 C29.8498161,5.89661893 29.8164191,6.03947811 29.8038952,6.12275031 L29.8038952,6.12275031 Z M27.6650124,3.83775126 C27.1021744,3.83775126 26.5764168,4.28976471 26.3286404,5.23019204 L28.5792559,5.23019204 C28.6207566,4.33738444 28.34474,3.83775126 27.6650124,3.83775126 L27.6650124,3.83775126 Z" id="Fill-12"></path>
                        <path d="M33.9706648,8.71740226 L33.9741028,7.91983412 C33.5013876,8.40799868 32.8857527,8.83632692 32.100186,8.83632692 C30.9160652,8.83632692 30.1022583,7.94376865 30.3962012,6.00357633 C30.7208399,3.86143647 32.0257794,2.9092912 33.3385771,2.9092912 C33.8780863,2.9092912 34.2975136,3.00453066 34.6192055,3.12345533 L35.0396151,0.350291725 L36.4805984,0.124409659 L35.1781145,8.71740226 L33.9706648,8.71740226 L33.9706648,8.71740226 Z M34.4406788,4.30173198 C34.1143211,4.13493827 33.8572132,4.05166607 33.3766399,4.05166607 C32.6379763,4.05166607 32.0068708,4.65875529 31.8155747,5.92055345 C31.6461339,7.03899379 32.0356021,7.56281081 32.6568849,7.56281081 C33.1725742,7.56281081 33.6180316,7.25365655 34.0652079,6.77745926 L34.4406788,4.30173198 L34.4406788,4.30173198 Z" id="Fill-13"></path>
                        <path d="M39.4873126,8.77150425 C38.8213367,8.77150425 38.2786351,8.66305094 37.7732596,8.48304338 L38.6985535,2.37973987 L39.7898503,2.20820912 L39.3895772,4.84973284 C39.7085679,4.56127197 40.1518151,4.27281109 40.6935344,4.27281109 C41.5991831,4.27281109 42.2057319,4.95818615 41.9842311,6.4184414 C41.7411204,8.02305176 40.7662221,8.77150425 39.4873126,8.77150425 L39.4873126,8.77150425 Z M40.2733704,5.22819749 C39.9180359,5.22819749 39.5614736,5.47178113 39.2459209,5.79664243 L38.9465755,7.77074199 C39.1565347,7.85177032 39.30191,7.88792142 39.603711,7.88792142 C40.2785273,7.88792142 40.7500147,7.47330567 40.9003013,6.48151885 C41.0275047,5.64306257 40.7529615,5.22819749 40.2733704,5.22819749 L40.2733704,5.22819749 Z" id="Fill-14"></path>
                        <path d="M44.4946558,8.95176113 C43.9502352,10.0245763 43.4114627,10.3581637 42.5856231,10.3581637 C42.3989927,10.3581637 42.2953637,10.3399635 42.2018029,10.3130372 L42.194927,9.42047889 C42.3317075,9.45662999 42.4783106,9.48355633 42.6826218,9.48355633 C42.9935088,9.48355633 43.2638773,9.33945055 43.4451052,9.02381402 L43.5863059,8.73535315 L42.6828673,4.44409253 L43.8149282,4.29998675 L44.3392123,7.40100346 L45.7588313,4.36306419 L46.8155032,4.36306419 L44.4946558,8.95176113" id="Fill-15"></path>
                    </g>
                </g>
            </g>
        </g>
    </g>
</svg>