<?xml version="1.0" encoding="UTF-8"?>
<svg width="32px" height="24px" viewBox="0 0 32 24" version="1.1" xmlns="http://www.w3.org/2000/svg" xmlns:xlink="http://www.w3.org/1999/xlink">
    <!-- Generator: sketchtool 41.2 (35396) - http://www.bohemiancoding.com/sketch -->
    <title>F6486302-427D-4BEA-B011-2FD784104037</title>
    <desc>Created with sketchtool.</desc>
    <defs></defs>
    <g id="Symbols" stroke="none" stroke-width="1" fill="none" fill-rule="evenodd">
        <g id="Logo/Visa-Color">
            <g id="visa" transform="translate(0.000000, 6.000000)">
                <path d="M9.14602734,0.333134683 L6.61748381,7.26768136 L6.3477725,5.85874302 C5.71809215,4.13097805 4.35466962,2.31844462 2.76693011,1.58387454 L5.08018243,10.4883432 L7.81472594,10.4869934 L11.8813672,0.333134683 L9.14602734,0.333134683" id="Fill-1" fill="#1B548E"></path>
                <polyline id="Fill-2" fill="#1B548E" points="11.3132745 10.4983319 12.9299496 0.323416005 15.5131787 0.323416005 13.8957072 10.4983319 11.3132745 10.4983319"></polyline>
                <path d="M23.2676443,0.574211889 C22.7571573,0.369039799 21.9517399,0.146050132 20.9525338,0.146050132 C18.3969129,0.146050132 16.6015806,1.52745222 16.5859183,3.50331344 C16.5694595,4.96678436 17.8697016,5.7831533 18.8471397,6.26935716 C19.8559025,6.76689948 20.1927761,7.08626604 20.1895906,7.53143548 C20.1797684,8.21309275 19.3825803,8.52382048 18.6416706,8.52382048 C17.6090161,8.52382048 17.0587095,8.37048134 16.2121451,7.99199283 L15.8765988,7.8297449 L15.515037,10.1068851 C16.1194982,10.3903466 17.2352429,10.6360132 18.3950547,10.6487014 C21.1070338,10.6487014 22.8715722,9.28295722 22.8925439,7.1740041 C22.9034279,6.01316202 22.2132218,5.13443155 20.7213147,4.40904023 C19.8208612,3.93741438 19.263918,3.62479691 19.2721474,3.14669195 C19.2729438,2.72446938 19.7393638,2.27201093 20.752374,2.27201093 C21.5984074,2.25770288 22.2068506,2.45504603 22.6857475,2.66318772 L22.9161702,2.77981186 L23.2676443,0.574211889" id="Fill-3" fill="#1B548E"></path>
                <path d="M29.8933575,0.333944573 L27.8976,0.333944573 C27.2788037,0.333944573 26.8150383,0.513200188 26.5418759,1.1783897 L22.7069846,10.5015714 L25.420291,10.5015714 C25.420291,10.5015714 25.8638812,9.24678214 25.9642265,8.97168956 C26.2602188,8.97168956 28.8954788,8.97789871 29.2716411,8.97789871 C29.3515457,9.33263046 29.5862158,10.5015714 29.5862158,10.5015714 L31.985213,10.5015714 L29.8933575,0.333944573 L29.8933575,0.333944573 Z M26.7075254,6.89054266 C26.9220202,6.3066121 27.7367289,4.04647955 27.7367289,4.04647955 C27.7208011,4.0740158 27.9485691,3.45795961 28.0802392,3.07704142 L28.2522598,3.95415211 C28.2522598,3.95415211 28.7486772,6.38220181 28.8522082,6.89054266 L26.7075254,6.89054266 L26.7075254,6.89054266 Z" id="Fill-4" fill="#1B548E"></path>
                <path d="M4.27184489,0.328005381 L0.105389164,0.328005381 L0.0809664859,0.503211547 C3.32042232,1.34576693 5.45793754,3.41476548 6.3477725,5.86144265 L5.44227517,1.18513878 C5.28671334,0.541816295 4.83330101,0.350682296 4.27184489,0.328005381" id="Fill-5" fill="#E89F3E"></path>
            </g>
        </g>
    </g>
</svg>